<?xml version="1.0" encoding="utf-8"?>
<!-- Generator: Adobe Illustrator 24.2.0, SVG Export Plug-In . SVG Version: 6.00 Build 0)  -->
<svg version="1.1" id="Layer_1" xmlns="http://www.w3.org/2000/svg" xmlns:xlink="http://www.w3.org/1999/xlink" x="0px" y="0px"
	 viewBox="0 0 908.4 500" style="enable-background:new 0 0 908.4 500;" xml:space="preserve">
<style type="text/css">
	.st0{fill:#0994DC;}
	.st1{fill:#BDBCBC;}
</style>
<path class="st0" d="M412.4,300C240.5,300,89,317.6,0,344.4c66-7.7,146.2-12.2,232.9-12.2c224.7,0,406.9,30.3,406.9,67.8
	s-182.2,67.8-406.9,67.8c-86.6,0-166.9-4.5-232.9-12.2C89,482.4,240.5,500,412.4,500c273.9,0,496-44.8,496-100S686.4,300,412.4,300z
	"/>
<path class="st1" d="M412.4,200C240.5,200,89,217.6,0,244.4c66-7.7,146.2-12.2,232.9-12.2c224.7,0,406.9,30.3,406.9,67.8
	s-182.2,67.8-406.9,67.8c-86.6,0-166.9-4.5-232.9-12.2C89,382.4,240.5,400,412.4,400c273.9,0,496-44.8,496-100S686.4,200,412.4,200z
	"/>
<path class="st1" d="M412.4,100C240.5,100,89,117.6,0,144.4c66-7.7,146.2-12.2,232.9-12.2c224.7,0,406.9,30.3,406.9,67.8
	c0,37.4-182.2,67.8-406.9,67.8c-86.6,0-166.9-4.5-232.9-12.2C89,282.4,240.5,300,412.4,300c273.9,0,496-44.8,496-100
	S686.4,100,412.4,100z"/>
<path class="st0" d="M412.4,0C240.5,0,89,17.6,0,44.4c66-7.7,146.2-12.2,232.9-12.2c224.7,0,406.9,30.3,406.9,67.8
	c0,37.4-182.2,67.8-406.9,67.8c-86.6,0-166.9-4.5-232.9-12.2C89,182.4,240.5,200,412.4,200c273.9,0,496-44.8,496-100
	S686.4,0,412.4,0z"/>
</svg>
