<?xml version="1.0" encoding="utf-8"?>
<!-- Generator: Adobe Illustrator 24.2.0, SVG Export Plug-In . SVG Version: 6.00 Build 0)  -->
<svg version="1.1" id="Layer_2" xmlns="http://www.w3.org/2000/svg" xmlns:xlink="http://www.w3.org/1999/xlink" x="0px" y="0px"
	 viewBox="0 0 759.3 615.4" style="enable-background:new 0 0 759.3 615.4;" xml:space="preserve">
<style type="text/css">
	.st0{fill:#BDBCBC;}
	.st1{fill:#0994DC;}
</style>
<g id="Layer_1_2_">
	<path class="st0" d="M710.6,386.9c-1.6,2-3.2,4.1-5,6.2c-23.5,28.5-50.1,51.4-109,88c-46.9,29.1-87.1,50.1-137.9,75
		c-33,16.2-75.2,36.3-124.9,58.7c-6.8,3.1-12.3-7.1-7.3-13.4c15.5-19.7,32.4-46.8,45.3-82.2c0,0,0,0,0,0c1,0,1.9,0,2.8,0
		c1.6,0,3.3,0,4.9,0c1.6,0,3.3,0,4.9,0C524.5,518,646.2,465,710.6,386.9z"/>
	<path class="st1" d="M759.3,268.1c-0.2,1.8-0.3,3.9-0.6,6.2c0.2-2,0.3-4,0.4-6.1L759.3,268.1z"/>
</g>
<g id="Layer_2_2_">
	<path class="st1" d="M756,292.1c-5.5,27.9-17.5,59.1-45.4,94.8c21.9-26.5,37.1-55.9,44.2-87.2c1.9-8.4,3.2-16.9,3.9-25.5
		C758.1,279.3,757.3,285.4,756,292.1z"/>
	<path class="st0" d="M384.5,0c-1.6,0-3.3,0-4.9,0c-1.6,0-3.3,0-4.9,0C167.3,1.8,0,117.3,0,259.6c0,141.3,164.9,256.1,370.2,259.5
		c0.6,0,1.1,0,1.6,0c1,0,1.9,0,2.8,0c1.6,0,3.3,0,4.9,0c1.6,0,3.3,0,4.9,0c139.9-1.2,261.7-54.2,326-132.3l0,0
		c27.9-35.7,40-66.9,45.4-94.8c1.3-6.7,2.1-12.8,2.7-17.8c0.2-2,0.3-4,0.4-6.1c0.1-2.9,0.2-5.7,0.2-8.6C759.3,117.3,592,1.8,384.5,0
		z M531.2,212.1c5-1.7,10.4-2.6,16-2.6c27.8,0,50.3,22.5,50.3,50.3s-22.6,50.3-50.3,50.3c-5.6,0-11-0.9-16-2.6
		c-20-6.7-34.3-25.5-34.3-47.7C496.9,237.6,511.3,218.8,531.2,212.1z M228.3,307.5c-5,1.7-10.4,2.6-15.9,2.6
		c-27.8,0-50.3-22.5-50.3-50.3s22.5-50.3,50.3-50.3c5.6,0,10.9,0.9,15.9,2.6c20,6.6,34.4,25.5,34.4,47.7
		C262.6,282,248.2,300.8,228.3,307.5z M329.8,258.4c0-27.4,21.9-49.7,49.2-50.3c0.4,0,0.8,0,1.1,0c0.3,0,0.7,0,1,0
		c27.3,0.5,49.3,22.8,49.3,50.3c0,27.5-22,49.8-49.3,50.3c-0.3,0-0.7,0-1,0c-0.4,0-0.8,0-1.1,0C351.7,308.1,329.8,285.8,329.8,258.4
		z"/>
</g>
</svg>
