<?xml version="1.0" encoding="utf-8"?>
<!-- Generator: Adobe Illustrator 24.2.0, SVG Export Plug-In . SVG Version: 6.00 Build 0)  -->
<svg version="1.1" xmlns="http://www.w3.org/2000/svg" xmlns:xlink="http://www.w3.org/1999/xlink" x="0px" y="0px"
	 viewBox="0 0 919.3 629.1" style="enable-background:new 0 0 919.3 629.1;" xml:space="preserve">
<style type="text/css">
	.st0{fill:#0994DC;}
</style>
<g id="Layer_1">
	<path class="st0" d="M919.3,268.1c-0.6,5.8-1.7,14.2-4,24c-7,29.5-22.9,62.7-61,101c-28.4,28.5-60.7,51.4-132,88
		c-56.8,29.1-105.4,50.1-167,75c-40,16.2-91,36.3-151.2,58.7c-8.2,3.1-14.9-7.1-8.8-13.4c18.7-19.7,39.2-46.8,54.9-82.2
		c14.3-32.2,20.4-61.8,23.1-84.1"/>
</g>
<g id="Layer_2">
	<path class="st0" d="M459.6,0C205.8,0,0,116.2,0,259.6s205.8,259.6,459.6,259.6S919.3,403,919.3,259.6S713.5,0,459.6,0z
		 M292.4,310.1c-27.8,0-50.3-22.5-50.3-50.3c0-27.8,22.5-50.3,50.3-50.3s50.3,22.5,50.3,50.3C342.6,287.6,320.1,310.1,292.4,310.1z
		 M460.1,308.7c-27.8,0-50.3-22.5-50.3-50.3s22.5-50.3,50.3-50.3c27.8,0,50.3,22.5,50.3,50.3S487.9,308.7,460.1,308.7z M627.2,310.1
		c-27.8,0-50.3-22.5-50.3-50.3c0-27.8,22.5-50.3,50.3-50.3s50.3,22.5,50.3,50.3C677.5,287.6,654.9,310.1,627.2,310.1z"/>
</g>
</svg>
