<?xml version="1.0" encoding="utf-8"?>
<!-- Generator: Adobe Illustrator 24.2.0, SVG Export Plug-In . SVG Version: 6.00 Build 0)  -->
<svg version="1.1" id="Layer_1" xmlns="http://www.w3.org/2000/svg" xmlns:xlink="http://www.w3.org/1999/xlink" x="0px" y="0px"
	 viewBox="0 0 470.8 560.1" style="enable-background:new 0 0 470.8 560.1;" xml:space="preserve">
<style type="text/css">
	.st0{fill:#0994DC;}
	.st1{fill:#BDBCBC;}
</style>
<g>
	<path class="st0" d="M108.5,294.2c-39.6,0-59.4-11.4-59.4-34.3v-78.3c0-12-12.1-18-36.3-18v-21.1c24.2,0,36.3-5.9,36.3-17.7V45.9
		c0-22.8,19.8-34.3,59.4-34.3H131v19.6c-24.2,0-36.3,2.9-36.3,8.6v85c0,12.2-11,21.8-32.9,28.7c21.9,6.9,32.9,16.3,32.9,28.1V266
		c0,5.7,12.1,8.6,36.3,8.6v19.6H108.5z"/>
</g>
<g>
	<path class="st0" d="M341.7,520.3v-19.6c24.2,0,36.3-2.9,36.3-8.6v-84.4c0-11.8,11-21.2,32.9-28.1c-21.9-6.9-32.9-16.5-32.9-28.7
		v-85c0-5.7-12.1-8.6-36.3-8.6v-19.6h22.6c39.6,0,59.4,11.4,59.4,34.3v78.9c0,11.8,12.1,17.7,36.3,17.7v21.1c-24.2,0-36.3,6-36.3,18
		v78.3c0,22.8-19.8,34.3-59.4,34.3H341.7z"/>
</g>
<g>
	<path class="st1" d="M203.6,245.5v-44.6H265v44.6H203.6z M204.1,373.9l20.1-33h-20.6v-44.3h61.8v39.8l-39.3,44.6L204.1,373.9z"/>
</g>
</svg>
