<?xml version="1.0" encoding="utf-8"?>
<!-- Generator: Adobe Illustrator 24.2.0, SVG Export Plug-In . SVG Version: 6.00 Build 0)  -->
<svg version="1.1" id="Layer_1" xmlns="http://www.w3.org/2000/svg" xmlns:xlink="http://www.w3.org/1999/xlink" x="0px" y="0px"
	 viewBox="0 0 480.1 415.1" style="enable-background:new 0 0 480.1 415.1;" xml:space="preserve">
<style type="text/css">
	.st0{fill:#A7A5A6;}
</style>
<g id="Layer_3">
	<g>
		<g>
			<g>
				<path class="st0" d="M358.1,91.1c3.2-26.7,19.8-36.5,36.6-30.2c3.7,1.4,10.8,4.6,14.8,8c-3.2-6.3-7.1-12.2-11.6-17.4
					c-19.8-22.8-44.4-23.7-54.8-2s2.2,63,22,85.8C359.3,119.7,356.4,105.7,358.1,91.1z"/>
			</g>
		</g>
		<g>
			<g>
				<path class="st0" d="M418.8,197.3c24.1-16.9,43.8-13.7,50.6,1c1.5,3.3,3.9,9.9,4,14.6c2.9-6.4,5-13,6-19.5
					c4.6-28.2-12-43.8-37.2-34.8c-25.1,9-50,45.9-54.6,74.1C396.3,218.3,405.6,206.7,418.8,197.3z"/>
			</g>
		</g>
		<g>
			<g>
				<path class="st0" d="M374.8,309.5c30.9,2.8,42.2,17.1,34.9,31.6c-1.6,3.2-5.3,9.3-9.2,12.8c7.3-2.8,14.1-6.1,20.1-10
					c26.3-17.1,27.3-38.3,2.2-47.4c-25.1-9-72.9,1.9-99.3,19C341.7,310.6,357.9,308.1,374.8,309.5z"/>
			</g>
		</g>
		<g>
			<g>
				<path class="st0" d="M251.9,362c19.6,20.8,15.9,37.9-1.2,43.7c-3.8,1.3-11.4,3.4-16.9,3.5c7.4,2.5,15,4.3,22.5,5.2
					c32.6,4,50.7-10.4,40.3-32.2c-10.4-21.7-53.1-43.2-85.7-47.2C227.6,342.6,241.1,350.6,251.9,362z"/>
			</g>
		</g>
		<g>
			<g>
				<path class="st0" d="M122.1,324c-3.2,26.7-19.8,36.5-36.6,30.2c-3.7-1.4-10.8-4.6-14.8-8c3.2,6.3,7.1,12.2,11.6,17.4
					c19.8,22.7,44.3,23.6,54.8,1.9c10.4-21.7-2.2-63-22-85.8C120.9,295.4,123.8,309.4,122.1,324z"/>
			</g>
		</g>
		<g>
			<g>
				<path class="st0" d="M61.4,217.7c-24.1,16.9-43.8,13.7-50.6-1c-1.5-3.3-3.9-9.9-4-14.6c-2.9,6.4-5,13-6,19.5
					c-4.6,28.2,12,43.8,37.2,34.8c25.1-9,50-45.9,54.6-74.1C83.9,196.7,74.6,208.4,61.4,217.7z"/>
			</g>
		</g>
		<g>
			<g>
				<path class="st0" d="M105.4,105.5c-30.9-2.8-42.2-17.1-34.9-31.6c1.6-3.2,5.3-9.3,9.2-12.8c-7.3,2.8-14.1,6.1-20.1,10
					c-26.4,17.1-27.4,38.4-2.3,47.4c25.1,9,72.9-1.9,99.3-19C138.5,104.5,122.3,107,105.4,105.5z"/>
			</g>
		</g>
		<g>
			<g>
				<path class="st0" d="M228.3,53c-19.6-20.8-15.9-37.9,1.2-43.7c3.8-1.3,11.4-3.4,16.9-3.5c-7.4-2.5-15-4.3-22.5-5.2
					c-32.6-4-50.7,10.4-40.3,32.2C194,54.5,236.7,76,269.3,80C252.6,72.5,239.1,64.5,228.3,53z"/>
			</g>
		</g>
	</g>
</g>
<g id="Layer_1_1_">
	<g>
		<ellipse class="st0" cx="239.9" cy="208" rx="136.5" ry="118"/>
	</g>
</g>
</svg>
