<?xml version="1.0" encoding="utf-8"?>
<!-- Generator: Adobe Illustrator 24.2.0, SVG Export Plug-In . SVG Version: 6.00 Build 0)  -->
<svg version="1.1" xmlns="http://www.w3.org/2000/svg" xmlns:xlink="http://www.w3.org/1999/xlink" x="0px" y="0px"
	 viewBox="0 0 691.2 688.3" style="enable-background:new 0 0 691.2 688.3;" xml:space="preserve">
<style type="text/css">
	.st0{fill:#D3D2D2;}
	.st1{fill:#0994DC;}
	.st2{fill:none;}
</style>
<g id="Layer_1">
	<g>
		<path class="st0" d="M91.1,24.1v66.6H24.5V24.1H91.1 M106.1,9.1H9.5v96.6h96.6V9.1L106.1,9.1z"/>
	</g>
	<g>
		<path class="st0" d="M139.5,46l22.6,23.2l0.1,0.1l0.1,0.1l21.8,21.2h-44.7L139.5,46 M124.5,9.1v96.6h96.6l-48.3-47L124.5,9.1
			L124.5,9.1z"/>
	</g>
	<g>
		<path class="st0" d="M91.1,138.8v66.6H24.5v-66.6L91.1,138.8 M106.1,123.8H9.5v96.6h96.6V123.8L106.1,123.8z"/>
	</g>
	<g>
		<path class="st0" d="M68.8,253.6l-23.2,22.6l-0.1,0.1l-0.1,0.1l-21.3,21.9v-44.7L68.8,253.6 M105.7,238.6H9.1v96.6l47-48.3
			L105.7,238.6L105.7,238.6z"/>
	</g>
	<g>
		<path class="st0" d="M206.1,253.6v66.6h-66.6v-66.6H206.1 M221.1,238.6h-96.6v96.6h96.6V238.6L221.1,238.6z"/>
	</g>
	<g>
		<path class="st0" d="M320.7,253.6v44.7l-22.5-23.2l-0.1-0.1l-0.1-0.1l-21.9-21.3H320.7 M335.7,238.6h-96.6l48.3,47l48.3,49.6
			L335.7,238.6L335.7,238.6z"/>
	</g>
	<g>
		<path class="st0" d="M435.7,138.9v66.6h-66.6v-66.6L435.7,138.9 M450.7,123.9h-96.6v96.6h96.6V123.9L450.7,123.9z"/>
	</g>
	<g>
		<path class="st0" d="M320.7,139.1v66.6h-66.6v-66.6H320.7 M335.7,124.1h-96.6v96.6h96.6V124.1L335.7,124.1z"/>
	</g>
	<g>
		<path class="st0" d="M436.1,46v44.7h-44.7l23.2-22.6l0.1-0.1l0.1-0.1L436.1,46 M451.1,9.1l-47,48.3l-49.6,48.3h96.6V9.1L451.1,9.1
			z"/>
	</g>
	<g>
		<path class="st0" d="M320.7,24.1v66.6h-66.6V24.1H320.7 M335.7,9.1h-96.6v96.6h96.6V9.1L335.7,9.1z"/>
	</g>
	<g>
		<path class="st0" d="M91.1,368.1v66.6H24.5v-66.6H91.1 M106.1,353.1H9.5v96.6h96.6V353.1L106.1,353.1z"/>
	</g>
	<g>
		<path class="st1" d="M139.5,390l22.6,23.2l0.1,0.1l0.1,0.1l21.8,21.2h-44.7L139.5,390 M124.5,353.1v96.6h96.6l-48.3-47
			L124.5,353.1L124.5,353.1z"/>
	</g>
	<g>
		<path class="st0" d="M91.1,482.8v66.6H24.5v-66.6L91.1,482.8 M106.1,467.8H9.5v96.6h96.6V467.8L106.1,467.8z"/>
	</g>
	<g>
		<path class="st0" d="M68.8,597.6l-23.2,22.6l-0.1,0.1l-0.1,0.1l-21.3,21.9v-44.7H68.8 M105.7,582.6H9.1v96.6l47-48.3L105.7,582.6
			L105.7,582.6z"/>
	</g>
	<g>
		<path class="st0" d="M206.1,597.6v66.6h-66.6v-66.6H206.1 M221.1,582.6h-96.6v96.6h96.6V582.6L221.1,582.6z"/>
	</g>
	<g>
		<path class="st0" d="M435.7,597.6v66.6h-66.6v-66.6H435.7 M450.7,582.6h-96.6v96.6h96.6V582.6L450.7,582.6z"/>
	</g>
	<g>
		<path class="st0" d="M320.7,253.6v44.7l-22.5-23.2l-0.1-0.1l-0.1-0.1l-21.9-21.3H320.7 M335.7,238.6h-96.6l48.3,47l48.3,49.6
			L335.7,238.6L335.7,238.6z"/>
	</g>
	<g>
		<path class="st0" d="M435.7,482.9v66.6h-66.6v-66.6L435.7,482.9 M450.7,467.9h-96.6v96.6h96.6V467.9L450.7,467.9z"/>
	</g>
	<g>
		<path class="st0" d="M320.7,483.1v66.6h-66.6v-66.6H320.7 M335.7,468.1h-96.6v96.6h96.6V468.1L335.7,468.1z"/>
	</g>
	<g>
		<path class="st0" d="M320.7,24.1v66.6h-66.6V24.1H320.7 M335.7,9.1h-96.6v96.6h96.6V9.1L335.7,9.1z"/>
	</g>
	<g>
		<path class="st0" d="M298.8,368.1l-23.2,22.6l-0.1,0.1l-0.1,0.1l-21.3,21.9v-44.7H298.8 M335.7,353.1h-96.6v96.6l47-48.3
			L335.7,353.1L335.7,353.1z"/>
	</g>
	<g>
		<path class="st0" d="M321.1,619.5v44.7h-44.7l23.2-22.6l0.1-0.1l0.1-0.1L321.1,619.5 M336.1,582.6l-47,48.3l-49.6,48.3h96.6V582.6
			L336.1,582.6z"/>
	</g>
	<g>
		<path class="st0" d="M435.7,368.2v66.6h-66.6v-66.6H435.7 M450.7,353.2h-96.6v96.6h96.6V353.2L450.7,353.2z"/>
	</g>
	<g>
		<path class="st1" d="M403.1,253.8c18.2,0,33,14.9,33,33.3s-14.8,33.3-33,33.3s-33-14.9-33-33.3S384.9,253.8,403.1,253.8
			 M403.1,238.8c-26.5,0-48,21.6-48,48.3s21.5,48.3,48,48.3s48-21.6,48-48.3S429.6,238.8,403.1,238.8L403.1,238.8z"/>
	</g>
	<g>
		<path class="st0" d="M172.3,483.2c18.2,0,33,14.9,33,33.3c0,18.4-14.8,33.3-33,33.3s-33-14.9-33-33.3
			C139.3,498.1,154.2,483.2,172.3,483.2 M172.3,468.2c-26.5,0-48,21.6-48,48.3c0,26.7,21.5,48.3,48,48.3s48-21.6,48-48.3
			S198.9,468.2,172.3,468.2L172.3,468.2z"/>
	</g>
	<g>
		<path class="st0" d="M600.5,390l22.6,23.2l0.1,0.1l0.1,0.1l21.8,21.2h-44.7V390 M585.5,353.1v96.6h96.6l-48.3-47L585.5,353.1
			L585.5,353.1z"/>
	</g>
	<g>
		<path class="st0" d="M552.1,482.8v66.6h-66.6v-66.6L552.1,482.8 M567.1,467.8h-96.6v96.6h96.6V467.8L567.1,467.8z"/>
	</g>
	<g>
		<path class="st1" d="M667.1,482.6v66.6h-66.6v-66.6L667.1,482.6 M682.1,467.6h-96.6v96.6h96.6V467.6L682.1,467.6z"/>
	</g>
	<g>
		<path class="st0" d="M529.8,597.6l-23.2,22.6l-0.1,0.1l-0.1,0.1l-21.3,21.9v-44.7H529.8 M566.7,582.6h-96.6v96.6l47-48.3
			L566.7,582.6L566.7,582.6z"/>
	</g>
	<g>
		<path class="st0" d="M667.1,597.6v66.6h-66.6v-66.6H667.1 M682.1,582.6h-96.6v96.6h96.6V582.6L682.1,582.6z"/>
	</g>
	<g>
		<path class="st0" d="M552.1,24.1v66.6h-66.6V24.1H552.1 M567.1,9.1h-96.6v96.6h96.6V9.1L567.1,9.1z"/>
	</g>
	<g>
		<path class="st0" d="M600.5,390l22.6,23.2l0.1,0.1l0.1,0.1l21.8,21.2h-44.7V390 M585.5,353.1v96.6h96.6l-48.3-47L585.5,353.1
			L585.5,353.1z"/>
	</g>
	<g>
		<path class="st0" d="M552.1,138.8v66.6h-66.6v-66.6L552.1,138.8 M567.1,123.8h-96.6v96.6h96.6V123.8L567.1,123.8z"/>
	</g>
	<g>
		<path class="st0" d="M667.1,138.6v66.6h-66.6v-66.6H667.1 M682.1,123.6h-96.6v96.6h96.6V123.6L682.1,123.6z"/>
	</g>
	<g>
		<path class="st0" d="M667.1,597.6v66.6h-66.6v-66.6H667.1 M682.1,582.6h-96.6v96.6h96.6V582.6L682.1,582.6z"/>
	</g>
	<g>
		<path class="st0" d="M667.1,275.5v44.7h-44.7l23.2-22.6l0.1-0.1l0.1-0.1L667.1,275.5 M682.1,238.6l-47,48.3l-49.6,48.3h96.6V238.6
			L682.1,238.6z"/>
	</g>
	<g>
		<path class="st0" d="M644.8,24.1l-23.2,22.6l-0.1,0.1l-0.1,0.1l-21.3,21.9V24.1H644.8 M681.7,9.1h-96.6v96.6l47-48.3L681.7,9.1
			L681.7,9.1z"/>
	</g>
	<g>
		<path class="st0" d="M552.2,253.5v66.6h-66.6v-66.6H552.2 M567.2,238.5h-96.6v96.6h96.6V238.5L567.2,238.5z"/>
	</g>
	<g>
		<path class="st0" d="M518.1,367.9c18.2,0,33,14.9,33,33.3s-14.8,33.3-33,33.3c-18.2,0-33-14.9-33-33.3S499.9,367.9,518.1,367.9
			 M518.1,352.9c-26.5,0-48,21.6-48,48.3s21.5,48.3,48,48.3c26.5,0,48-21.6,48-48.3S544.6,352.9,518.1,352.9L518.1,352.9z"/>
	</g>
	<g>
		<path class="st0" d="M172.3,139c18.2,0,33,14.9,33,33.3s-14.8,33.3-33,33.3s-33-14.9-33-33.3S154.2,139,172.3,139 M172.3,124
			c-26.5,0-48,21.6-48,48.3s21.5,48.3,48,48.3s48-21.6,48-48.3S198.9,124,172.3,124L172.3,124z"/>
	</g>
</g>
<g id="Layer_2">
	
		<rect x="351.6" y="339.6" transform="matrix(-1.836970e-16 1 -1 -1.836970e-16 1030.8099 -342.4901)" class="st2" width="670.1" height="9.1"/>
	<rect x="9.5" transform="matrix(-1 -1.224647e-16 1.224647e-16 -1 700.7 9.1)" class="st2" width="681.7" height="9.1"/>
	
		<rect x="-330.5" y="339.6" transform="matrix(-1.836970e-16 1 -1 -1.836970e-16 348.7099 339.6099)" class="st2" width="670.1" height="9.1"/>
	<rect y="679.2" transform="matrix(-1 -1.224647e-16 1.224647e-16 -1 691.2 1367.5396)" class="st2" width="691.2" height="9.1"/>
</g>
</svg>
