<?xml version="1.0" encoding="utf-8"?>
<!-- Generator: Adobe Illustrator 24.2.0, SVG Export Plug-In . SVG Version: 6.00 Build 0)  -->
<svg version="1.1" id="Layer_1" xmlns="http://www.w3.org/2000/svg" xmlns:xlink="http://www.w3.org/1999/xlink" x="0px" y="0px"
	 viewBox="0 0 673 670.1" style="enable-background:new 0 0 673 670.1;" xml:space="preserve">
<style type="text/css">
	.st0{fill:#D3D2D2;}
	.st1{fill:#0994DC;}
</style>
<g>
	<path class="st0" d="M82,15v66.6H15.4V15H82 M97,0H0.4v96.6H97V0L97,0z"/>
</g>
<g>
	<path class="st0" d="M130.4,36.9l22.6,23.2l0.1,0.1l0.1,0.1l21.8,21.2h-44.7V36.9 M115.4,0v96.6H212l-48.3-47L115.4,0L115.4,0z"/>
</g>
<g>
	<path class="st0" d="M82,129.7v66.6H15.4v-66.6H82 M97,114.7H0.4v96.6H97V114.7L97,114.7z"/>
</g>
<g>
	<path class="st0" d="M59.7,244.5l-23.2,22.6l-0.1,0.1l-0.1,0.1L15,289.2v-44.7H59.7 M96.6,229.5H0v96.6l47-48.3L96.6,229.5
		L96.6,229.5z"/>
</g>
<g>
	<path class="st0" d="M197,244.5v66.6h-66.6v-66.6H197 M212,229.5h-96.6v96.6H212V229.5L212,229.5z"/>
</g>
<g>
	<path class="st0" d="M311.6,244.5v44.7L289.1,266l-0.1-0.1l-0.1-0.1L267,244.5H311.6 M326.6,229.5H230l48.3,47l48.3,49.6V229.5
		L326.6,229.5z"/>
</g>
<g>
	<path class="st0" d="M426.6,129.8v66.6H360v-66.6H426.6 M441.6,114.8H345v96.6h96.6V114.8L441.6,114.8z"/>
</g>
<g>
	<path class="st0" d="M311.6,130v66.6H245V130H311.6 M326.6,115H230v96.6h96.6V115L326.6,115z"/>
</g>
<g>
	<path class="st0" d="M427,36.9v44.7h-44.7l23.2-22.6l0.1-0.1l0.1-0.1L427,36.9 M442,0l-47,48.3l-49.6,48.3H442V0L442,0z"/>
</g>
<g>
	<path class="st0" d="M311.6,15v66.6H245V15H311.6 M326.6,0H230v96.6h96.6V0L326.6,0z"/>
</g>
<g>
	<path class="st0" d="M82,359v66.6H15.4V359H82 M97,344H0.4v96.6H97V344L97,344z"/>
</g>
<g>
	<path class="st1" d="M130.4,380.9l22.6,23.2l0.1,0.1l0.1,0.1l21.8,21.2h-44.7V380.9 M115.4,344v96.6H212l-48.3-47L115.4,344
		L115.4,344z"/>
</g>
<g>
	<path class="st0" d="M82,473.7v66.6H15.4v-66.6H82 M97,458.7H0.4v96.6H97V458.7L97,458.7z"/>
</g>
<g>
	<path class="st0" d="M59.7,588.5l-23.2,22.6l-0.1,0.1l-0.1,0.1L15,633.2v-44.7H59.7 M96.6,573.5H0v96.6l47-48.3L96.6,573.5
		L96.6,573.5z"/>
</g>
<g>
	<path class="st0" d="M197,588.5v66.6h-66.6v-66.6H197 M212,573.5h-96.6v96.6H212V573.5L212,573.5z"/>
</g>
<g>
	<path class="st0" d="M426.6,588.5v66.6H360v-66.6H426.6 M441.6,573.5H345v96.6h96.6V573.5L441.6,573.5z"/>
</g>
<g>
	<path class="st0" d="M311.6,244.5v44.7L289.1,266l-0.1-0.1l-0.1-0.1L267,244.5H311.6 M326.6,229.5H230l48.3,47l48.3,49.6V229.5
		L326.6,229.5z"/>
</g>
<g>
	<path class="st0" d="M426.6,473.8v66.6H360v-66.6H426.6 M441.6,458.8H345v96.6h96.6V458.8L441.6,458.8z"/>
</g>
<g>
	<path class="st0" d="M311.6,474v66.6H245V474H311.6 M326.6,459H230v96.6h96.6V459L326.6,459z"/>
</g>
<g>
	<path class="st0" d="M311.6,15v66.6H245V15H311.6 M326.6,0H230v96.6h96.6V0L326.6,0z"/>
</g>
<g>
	<path class="st0" d="M289.7,359l-23.2,22.6l-0.1,0.1l-0.1,0.1L245,403.7V359H289.7 M326.6,344H230v96.6l47-48.3L326.6,344
		L326.6,344z"/>
</g>
<g>
	<path class="st0" d="M312,605.3V650h-44.7l23.2-22.6l0.1-0.1l0.1-0.1L312,605.3 M327,568.4l-47,48.3L230.4,665H327V568.4L327,568.4
		z"/>
</g>
<g>
	<path class="st0" d="M426.6,359.1v66.6h-66.6v-66.6H426.6 M441.6,344.1h-96.6v96.6h96.6V344.1L441.6,344.1z"/>
</g>
<g>
	<path class="st1" d="M394,244.7c18.2,0,33,14.9,33,33.3s-14.8,33.3-33,33.3s-33-14.9-33-33.3S375.8,244.7,394,244.7 M394,229.7
		c-26.5,0-48,21.6-48,48.3s21.5,48.3,48,48.3s48-21.6,48-48.3S420.5,229.7,394,229.7L394,229.7z"/>
</g>
<g>
	<path class="st0" d="M163.2,474.1c18.2,0,33,14.9,33,33.3c0,18.4-14.8,33.3-33,33.3s-33-14.9-33-33.3
		C130.2,489,145.1,474.1,163.2,474.1 M163.2,459.1c-26.5,0-48,21.6-48,48.3c0,26.7,21.5,48.3,48,48.3s48-21.6,48-48.3
		C211.2,480.7,189.8,459.1,163.2,459.1L163.2,459.1z"/>
</g>
<g>
	<path class="st0" d="M591.4,380.9l22.6,23.2l0.1,0.1l0.1,0.1l21.8,21.2h-44.7V380.9 M576.4,344v96.6H673l-48.3-47L576.4,344
		L576.4,344z"/>
</g>
<g>
	<path class="st0" d="M543,473.7v66.6h-66.6v-66.6H543 M558,458.7h-96.6v96.6H558V458.7L558,458.7z"/>
</g>
<g>
	<path class="st1" d="M658,473.5v66.6h-66.6v-66.6H658 M673,458.5h-96.6v96.6H673V458.5L673,458.5z"/>
</g>
<g>
	<path class="st0" d="M520.7,588.5l-23.2,22.6l-0.1,0.1l-0.1,0.1L476,633.2v-44.7H520.7 M557.6,573.5H461v96.6l47-48.3L557.6,573.5
		L557.6,573.5z"/>
</g>
<g>
	<path class="st0" d="M658,588.5v66.6h-66.6v-66.6H658 M673,573.5h-96.6v96.6H673V573.5L673,573.5z"/>
</g>
<g>
	<path class="st0" d="M543,15v66.6h-66.6V15H543 M558,0h-96.6v96.6H558V0L558,0z"/>
</g>
<g>
	<path class="st0" d="M591.4,380.9l22.6,23.2l0.1,0.1l0.1,0.1l21.8,21.2h-44.7V380.9 M576.4,344v96.6H673l-48.3-47L576.4,344
		L576.4,344z"/>
</g>
<g>
	<path class="st0" d="M543,129.7v66.6h-66.6v-66.6H543 M558,114.7h-96.6v96.6H558V114.7L558,114.7z"/>
</g>
<g>
	<path class="st0" d="M658,129.5v66.6h-66.6v-66.6H658 M673,114.5h-96.6v96.6H673V114.5L673,114.5z"/>
</g>
<g>
	<path class="st0" d="M658,588.5v66.6h-66.6v-66.6H658 M673,573.5h-96.6v96.6H673V573.5L673,573.5z"/>
</g>
<g>
	<path class="st0" d="M658,266.4v44.7h-44.7l23.2-22.6l0.1-0.1l0.1-0.1L658,266.4 M673,229.5l-47,48.3l-49.6,48.3H673V229.5
		L673,229.5z"/>
</g>
<g>
	<path class="st0" d="M635.7,20.1l-23.2,22.6l-0.1,0.1l-0.1,0.1L591,64.8V20.1H635.7 M672.6,5.1H576v96.6l47-48.3L672.6,5.1
		L672.6,5.1z"/>
</g>
<g>
	<path class="st0" d="M543.1,244.4V311h-66.6v-66.6H543.1 M558.1,229.4h-96.6V326h96.6V229.4L558.1,229.4z"/>
</g>
<g>
	<path class="st0" d="M509,358.8c18.2,0,33,14.9,33,33.3s-14.8,33.3-33,33.3c-18.2,0-33-14.9-33-33.3S490.8,358.8,509,358.8
		 M509,343.8c-26.5,0-48,21.6-48,48.3s21.5,48.3,48,48.3c26.5,0,48-21.6,48-48.3S535.5,343.8,509,343.8L509,343.8z"/>
</g>
<g>
	<path class="st0" d="M163.2,129.9c18.2,0,33,14.9,33,33.3s-14.8,33.3-33,33.3s-33-14.9-33-33.3S145.1,129.9,163.2,129.9
		 M163.2,114.9c-26.5,0-48,21.6-48,48.3s21.5,48.3,48,48.3c26.5,0,48-21.6,48-48.3S189.8,114.9,163.2,114.9L163.2,114.9z"/>
</g>
</svg>
