<?xml version="1.0" encoding="utf-8"?>
<!-- Generator: Adobe Illustrator 24.2.0, SVG Export Plug-In . SVG Version: 6.00 Build 0)  -->
<svg version="1.1" id="Layer_1" xmlns="http://www.w3.org/2000/svg" xmlns:xlink="http://www.w3.org/1999/xlink" x="0px" y="0px"
	 viewBox="0 0 1046 826" style="enable-background:new 0 0 1046 826;" xml:space="preserve">
<style type="text/css">
	.st0{fill:#BDBCBC;}
	.st1{fill:#0994DC;}
</style>
<path class="st0" d="M51,154v82.8c0-22,17.8-39.8,39.8-39.8H299v-43H51z M1006.2,154H39.8C17.8,154,0,171.8,0,193.8v592.5
	c0,22,17.8,39.8,39.8,39.8h966.5c22,0,39.8-17.8,39.8-39.8V193.8C1046,171.8,1028.2,154,1006.2,154z M995,743.2
	c0,22-17.8,39.8-39.8,39.8H90.8c-22,0-39.8-17.8-39.8-39.8V236.8c0-22,17.8-39.8,39.8-39.8h864.5c22,0,39.8,17.8,39.8,39.8V743.2z"
	/>
<path class="st0" d="M310.2,1H39.8C35,1,30.5,1.8,26.3,3.4C14.9,7.4,6,16.5,2.1,27.9C0.8,31.9,0,36.3,0,40.8v592.5
	c0,22,17.8,39.8,39.8,39.8H51V83.8c0-17.4,11.2-32.2,26.7-37.6c4.1-1.4,8.5-2.2,13-2.2H350v-3.2C350,18.8,332.2,1,310.2,1z"/>
<path class="st0" d="M259.2,44H90.8H10.5H0v-3.2c0-4.5,0.8-8.8,2.1-12.9C6,16.5,14.9,7.4,26.3,3.4C30.5,1.8,35,1,39.8,1h209h61.5
	c22,0,39.8,17.8,39.8,39.8V44v7.3c-9-3.8-18.3-6.4-26.9-7.3h-37.2H259.2z"/>
<path class="st0" d="M259.2,44H90.8c-4.6,0-9,0.8-13.1,2.2l-65.1,0.7L10.5,44l-0.3-0.4C6,38.1,3.3,32.8,2.1,27.9
	C6,16.5,14.9,7.4,26.3,3.4c0.2,0,0.3,0,0.5,0l222-2.3l94.9-1c25.7-0.3,60,17.3,76.6,39.3L538,195.7l-59.7,0.6L392.9,83
	c-9.9-13.1-26-24.6-42.9-31.7c-9-3.8-18.3-6.4-26.9-7.3c-2.3-0.2-4.6-0.3-6.8-0.3L285.9,44H259.2z"/>
<rect x="625" y="251" class="st1" width="311" height="74"/>
</svg>
