<?xml version="1.0" encoding="utf-8"?>
<!-- Generator: Adobe Illustrator 24.2.0, SVG Export Plug-In . SVG Version: 6.00 Build 0)  -->
<svg version="1.1" id="Layer_1" xmlns="http://www.w3.org/2000/svg" xmlns:xlink="http://www.w3.org/1999/xlink" x="0px" y="0px"
	 viewBox="0 0 1080 1080" style="enable-background:new 0 0 1080 1080;" xml:space="preserve">
<style type="text/css">
	.st0{fill:#BDBCBC;}
</style>
<g>
	<path class="st0" d="M540,120c56.8,0,111.7,11.1,163.4,33c50,21.1,94.9,51.4,133.5,90.1c38.6,38.6,68.9,83.5,90.1,133.5
		c21.9,51.7,33,106.7,33,163.4s-11.1,111.7-33,163.4c-21.1,50-51.4,94.9-90.1,133.5c-38.6,38.6-83.5,68.9-133.5,90.1
		c-51.7,21.9-106.7,33-163.4,33s-111.7-11.1-163.4-33c-50-21.1-94.9-51.4-133.5-90.1c-38.6-38.6-68.9-83.5-90.1-133.5
		c-21.9-51.7-33-106.7-33-163.4s11.1-111.7,33-163.4c21.1-50,51.4-94.9,90.1-133.5c38.6-38.6,83.5-68.9,133.5-90.1
		C428.3,131.1,483.2,120,540,120 M540,0C241.8,0,0,241.8,0,540s241.8,540,540,540s540-241.8,540-540S838.2,0,540,0L540,0z"/>
</g>
<g>
	<path class="st0" d="M337.2,224.5h269c67.7,0,121.8,17.4,162.4,52.2c40.5,34.8,60.8,81.3,60.8,139.4c0,55.7-17.2,99.4-51.5,131.3
		c-34.3,31.9-86,51.8-154.9,59.8c-32.2,4-53.2,10.7-63.1,19.9c-9.9,9.3-15.2,24.4-15.8,45.5H403.6c-0.6-4.9-0.9-11.3-0.9-19
		c0-11.7,0.8-23.4,2.6-35c1.7-11.6,4.1-22,7.2-31.3c9-27.5,21.3-48.7,36.9-63.5c15.6-14.8,38.7-27.2,69.3-37.1
		c16.1-5.3,39-8.9,68.9-10.9c29.8-2,50-5,60.5-9c13.9-5.3,24.2-12,30.8-20.2c6.6-8.2,10-18.3,10-30.4c0-16.7-6.3-29.8-19-39.4
		c-12.7-9.6-30.2-14.4-52.4-14.4H337.2V224.5z M397.1,830.3v-57.1c0-17.3,4.4-30.3,13.2-39c8.8-8.7,22.2-13,40.1-13h57.1
		c17.3,0,30.3,4.3,39,13c8.7,8.7,13,21.6,13,39v57.1c0,17.9-4.3,31.3-13,40.1c-8.7,8.8-21.7,13.2-39,13.2h-57.1
		c-17.6,0-30.9-4.5-39.9-13.5C401.6,861.2,397.1,847.9,397.1,830.3z"/>
</g>
</svg>
