<?xml version="1.0" encoding="utf-8"?>
<!-- Generator: Adobe Illustrator 24.2.0, SVG Export Plug-In . SVG Version: 6.00 Build 0)  -->
<svg version="1.1" xmlns="http://www.w3.org/2000/svg" xmlns:xlink="http://www.w3.org/1999/xlink" x="0px" y="0px"
	 viewBox="0 0 1046 826" style="enable-background:new 0 0 1046 826;" xml:space="preserve">
<style type="text/css">
	.st0{fill:#BDBCBC;}
	.st1{fill:#BDBCBC;stroke:#BDBCBC;stroke-width:35;stroke-linecap:round;stroke-miterlimit:10;}
</style>
<g id="Layer_1">
	<g>
		<g>
			<path class="st0" d="M364.2,174c-53.8-10.5-107.4-13.2-160.7-2.7c12.1-55.6,24-110.9,35.7-166.1c51.9-7,104.1-2.1,156.4,9.6
				C385.4,67.8,374.9,120.9,364.2,174z"/>
			<path class="st0" d="M497.7,381.3c-55.7-21.3-111.1-39.1-166.3-48c11.2-53.2,22.1-106.3,32.9-159.3
				c53.8,10.5,107.8,28.9,162.1,49.7C517,276.4,507.5,328.9,497.7,381.3z"/>
			<path class="st0" d="M297.1,493c-56.6-6.9-113-3.7-169.2,15.1c13.1-56.8,25.9-113.2,38.5-169.4c54.7-14.3,109.7-14.4,164.9-5.5
				C320.2,386.5,308.7,439.7,297.1,493z"/>
			<path class="st0" d="M689.8,288.4c-54.7-20.4-109.2-43.8-163.5-64.6c9.3-52.7,18.4-105.5,27.2-158.6
				C606.4,85.3,659.4,107,712.7,125C705.3,179.8,697.7,234.2,689.8,288.4z"/>
			<path class="st0" d="M834.5,505.7c-56.6-12.7-113-33.2-169.1-55.8c8.4-53.6,16.5-107.4,24.4-161.6
				c54.7,20.4,109.7,37.9,164.9,46.9C848.2,392.5,841.5,449.3,834.5,505.7z"/>
			<path class="st0" d="M639.6,609.9c-57.6-24.5-114.9-50.3-172-71.7c10.2-52.2,20.2-104.5,30-156.9c55.7,21.3,111.6,46,167.7,68.6
				C657.1,503.5,648.5,556.9,639.6,609.9z"/>
			<path class="st0" d="M1020.9,331.3c-55.7,13.6-111.1,13-166.3,4c6.5-57.2,12.7-114.8,18.7-172.7c53.8,5.2,107.8,1.3,162-17.2
				C1030.8,207.7,1026,269.7,1020.9,331.3z"/>
			<path class="st0" d="M987.8,695.5c-58.5,3.8-116.7-5.3-174.8-21.5c7.4-55.7,14.6-111.8,21.5-168.2
				c56.6,12.7,113.4,17.6,170.5,8.9C999.5,575.4,993.8,635.6,987.8,695.5z"/>
		</g>
	</g>
</g>
<g id="Layer_2">
	<line class="st1" x1="244" y1="23.3" x2="61" y2="802"/>
</g>
</svg>
