<?xml version="1.0" encoding="utf-8"?>
<!-- Generator: Adobe Illustrator 24.2.0, SVG Export Plug-In . SVG Version: 6.00 Build 0)  -->
<svg version="1.1" xmlns="http://www.w3.org/2000/svg" xmlns:xlink="http://www.w3.org/1999/xlink" x="0px" y="0px"
	 viewBox="0 0 362.9 358.8" style="enable-background:new 0 0 362.9 358.8;" xml:space="preserve">
<style type="text/css">
	.st0{fill:#BDBCBC;}
	.st1{fill:#A7A5A6;}
	.st2{fill:url(#SVGID_1_);}
	.st3{fill:none;stroke:#0994DC;stroke-width:70;stroke-linecap:square;stroke-miterlimit:10;}
	.st4{fill:none;stroke:#0994DC;stroke-width:70;stroke-linecap:round;stroke-miterlimit:10;}
</style>
<g id="Layer_5">
	<path class="st0" d="M341.7,123.3c-18.4,18.4-44.3,24.8-67.9,19.2l-45,45l-8.5,8.5l-8.3,8.3l-5.5,5.5l-8.5,8.5l-8.3,8.3l-46.5,46.5
		c4.3,22.6-2.4,46.9-19.9,64.5c-21.3,21.3-52.7,26.5-78.9,15.6c12.5-1.5,25.9-8.1,37-19.1c21.3-21.3,25.8-51.2,10.2-66.9
		c-15.7-15.7-45.6-11.1-66.9,10.2c-11.1,11.1-17.6,24.5-19.1,37c-10.9-26.2-5.7-57.5,15.6-78.9c19.3-19.3,46.7-25.4,71.1-18.3
		l52.3-52.3l8.5-8.5l5.5-5.5l1.8-1.8l6.5-6.6l8.5-8.5l45-45c-5.6-23.6,0.8-49.5,19.2-67.9c21.3-21.3,52.7-26.5,78.9-15.6
		c-12.5,1.5-25.9,8-37,19.1c-21.3,21.3-25.8,51.2-10.2,66.9c15.7,15.7,45.6,11.1,66.9-10.2c11.1-11.1,17.6-24.5,19.1-37
		C368.3,70.6,363.1,102,341.7,123.3z"/>
</g>
<g id="Layer_6">
	<polygon class="st1" points="228.9,187.5 220.4,196 212.1,204.3 206.6,209.8 198.1,218.3 189.7,226.6 136.3,173.1 144.6,164.8 
		153.1,156.3 158.6,150.8 160.3,149.1 166.9,142.5 175.4,134 	"/>
</g>
<g id="Layer_2">
	<linearGradient id="SVGID_1_" gradientUnits="userSpaceOnUse" x1="181.4452" y1="338.2552" x2="181.4452" y2="20.5052">
		<stop  offset="0.1886" style="stop-color:#FFFFFF"/>
		<stop  offset="0.6096" style="stop-color:#BDBCBC"/>
	</linearGradient>
	<polygon class="st2" points="340.3,315.9 318,338.3 305.4,325.6 198.1,218.3 144.6,164.8 29.3,49.5 25.2,36 24.6,33.9 22.6,27.3 
		29.3,20.5 30.1,20.7 51.6,27.2 166.9,142.5 220.4,196 338,313.6 	"/>
	<line class="st3" x1="280.9" y1="278.8" x2="231.3" y2="229.2"/>
	<line class="st4" x1="325.8" y1="323.7" x2="280.9" y2="278.8"/>
</g>
</svg>
