<?xml version="1.0" encoding="UTF-8" standalone="no"?>
<svg
   xmlns:dc="http://purl.org/dc/elements/1.1/"
   xmlns:cc="http://creativecommons.org/ns#"
   xmlns:rdf="http://www.w3.org/1999/02/22-rdf-syntax-ns#"
   xmlns:svg="http://www.w3.org/2000/svg"
   xmlns="http://www.w3.org/2000/svg"
   xmlns:sodipodi="http://sodipodi.sourceforge.net/DTD/sodipodi-0.dtd"
   xmlns:inkscape="http://www.inkscape.org/namespaces/inkscape"
   version="1.1"
   id="svg2"
   xml:space="preserve"
   width="311.67999"
   height="150.90668"
   viewBox="0 0 311.67999 150.90668"
   sodipodi:docname="logo.eps"><metadata
     id="metadata8"><rdf:RDF><cc:Work
         rdf:about=""><dc:format>image/svg+xml</dc:format><dc:type
           rdf:resource="http://purl.org/dc/dcmitype/StillImage" /></cc:Work></rdf:RDF></metadata><defs
     id="defs6" /><sodipodi:namedview
     pagecolor="#ffffff"
     bordercolor="#666666"
     borderopacity="1"
     objecttolerance="10"
     gridtolerance="10"
     guidetolerance="10"
     inkscape:pageopacity="0"
     inkscape:pageshadow="2"
     inkscape:window-width="640"
     inkscape:window-height="480"
     id="namedview4" /><g
     id="g10"
     inkscape:groupmode="layer"
     inkscape:label="ink_ext_XXXXXX"
     transform="matrix(1.3333333,0,0,-1.3333333,0,150.90667)"><g
       id="g12"
       transform="scale(0.1)"><path
         d="m 2337.61,4.91016 h -75.18 l -14.72,73.00004 c -3.63,17.8086 -11.08,26.6988 -22.34,26.6988 h -55.02 v 65.934 h 61.01 c 13.81,0 20.71,4.719 20.71,14.168 v 16.344 c 0,9.808 -6.9,14.711 -20.71,14.711 h -86.63 V 4.91016 h -70.28 V 284.961 h 157.46 c 60.66,0 90.99,-22.152 90.99,-66.477 v -31.05 c 0,-27.606 -11.8,-44.5 -35.42,-50.672 14.54,-4.727 24.16,-17.434 28.88,-38.1409 l 21.25,-93.71094 v 0"
         style="fill:#a7a5a6;fill-opacity:1;fill-rule:nonzero;stroke:none"
         id="path14" /><path
         d="m 2028.68,4.91016 h -70.29 V 284.961 h 70.29 V 4.91016 v 0"
         style="fill:#a7a5a6;fill-opacity:1;fill-rule:nonzero;stroke:none"
         id="path16" /><path
         d="m 1938.56,4.91016 h -85.55 l -94.8,293.12484 c -2.9,8.723 -7.82,13.078 -14.71,13.078 -6.54,0 -11.26,-4.355 -14.17,-13.078 L 1634.52,4.91016 h -85.53 L 1653.05,320.922 c 15.25,46.496 45.4,69.742 90.45,69.742 45.04,0 75.18,-23.246 90.45,-69.742 L 1938.56,4.91016 v 0"
         style="fill:#a7a5a6;fill-opacity:1;fill-rule:nonzero;stroke:none"
         id="path18" /><path
         d="m 1528.92,4.91016 h -96.98 c -33.06,0 -56.66,7.07814 -70.83,21.25004 -14.17,14.1718 -21.25,37.7695 -21.25,70.8281 V 284.961 h 70.29 V 106.789 c 0,-12.707 2.27,-21.3398 6.81,-25.8788 4.54,-4.5391 13.16,-6.8008 25.88,-6.8008 h 86.08 v -69.19924 0"
         style="fill:#d3d2d2;fill-opacity:1;fill-rule:nonzero;stroke:none"
         id="path20" /><path
         d="m 1294.1,94.8086 c 0,-30.1484 -8.28,-53.4883 -24.8,-70.0195 C 1252.78,8.26953 1229.62,0 1199.83,0 h -77.91 c -29.79,0 -53.03,8.35156 -69.74,25.0586 -16.71,16.7109 -25.07,39.9609 -25.07,69.75 V 284.961 h 70.29 V 104.609 c 0,-23.5973 11.81,-35.4098 35.42,-35.4098 h 55.57 c 23.61,0 35.41,11.8125 35.41,35.4098 v 180.352 h 70.3 v -190.1524 0"
         style="fill:#d3d2d2;fill-opacity:1;fill-rule:nonzero;stroke:none"
         id="path22" /><path
         d="m 912.148,109.52 v 70.828 c 0,23.613 -11.621,35.418 -34.871,35.418 H 796.094 V 74.1094 h 81.183 c 23.25,0 34.871,11.789 34.871,35.4106 z m 70.829,-9.8091 c 0,-29.7812 -8.262,-53.039 -24.789,-69.75 C 941.66,13.2695 918.324,4.91016 888.176,4.91016 H 725.809 V 284.961 h 162.367 c 30.148,0 53.484,-8.262 70.012,-24.789 16.527,-16.527 24.789,-39.863 24.789,-70.012 v -90.4491 0"
         style="fill:#d3d2d2;fill-opacity:1;fill-rule:nonzero;stroke:none"
         id="path24" /><path
         d="m 610.848,104.609 v 80.645 c 0,23.605 -11.805,35.414 -35.418,35.414 h -61.571 c -23.613,0 -35.414,-11.809 -35.414,-35.414 v -80.645 c 0,-23.5973 11.801,-35.4098 35.414,-35.4098 h 61.571 c 23.613,0 35.418,11.8125 35.418,35.4098 z m 70.824,-9.8004 c 0,-29.7891 -8.262,-53.0391 -24.789,-69.75 C 640.359,8.35156 617.02,0 586.875,0 h -84.461 c -29.785,0 -53.031,8.35156 -69.734,25.0586 -16.715,16.7109 -25.063,39.9609 -25.063,69.75 V 195.059 c 0,30.152 8.348,53.484 25.063,70.011 16.703,16.532 39.949,24.793 69.734,24.793 h 84.461 c 30.145,0 53.484,-8.261 70.008,-24.793 16.527,-16.527 24.789,-39.859 24.789,-70.011 v -100.2504 0"
         style="fill:#d3d2d2;fill-opacity:1;fill-rule:nonzero;stroke:none"
         id="path26" /><path
         d="M 366.824,4.91016 H 305.891 V 219.398 c 0,11.254 -4.942,16.879 -14.825,16.879 -5.214,0 -9.05,-1.781 -11.527,-5.351 -1.918,-2.192 -3.98,-6.996 -6.172,-14.41 L 252.781,151.059 C 239.883,110.16 216.828,89.7109 183.617,89.7109 c -33.207,0 -56.265,20.4491 -69.164,61.3481 l -20.5858,65.457 c -2.1953,7.414 -4.2539,12.218 -6.1719,14.41 -2.4726,3.57 -6.3164,5.351 -11.5312,5.351 -10.1563,0 -15.2344,-5.625 -15.2344,-16.879 V 4.91016 L 0,4.91016 V 225.574 c 0,22.235 6.58984,39.59 19.7656,52.074 13.1719,12.493 31.4258,18.739 54.7539,18.739 18.6641,0 34.3755,-4.391 47.1405,-13.176 12.758,-8.781 21.473,-20.996 26.141,-36.641 l 25.113,-86.863 c 1.922,-6.867 5.492,-10.301 10.703,-10.301 5.215,0 8.785,3.434 10.707,10.301 l 25.114,86.863 c 4.664,15.645 13.378,27.86 26.14,36.641 12.766,8.785 28.477,13.176 47.141,13.176 23.328,0 41.511,-6.172 54.551,-18.528 13.031,-12.347 19.554,-29.781 19.554,-52.285 V 4.91016 v 0"
         style="fill:#d3d2d2;fill-opacity:1;fill-rule:nonzero;stroke:none"
         id="path28" /><path
         d="m 2337.61,4.91016 h -75.18 l -14.72,73.00004 c -3.63,17.8086 -11.08,26.6988 -22.34,26.6988 h -55.02 v 65.934 h 61.01 c 13.81,0 20.71,4.719 20.71,14.168 v 16.344 c 0,9.808 -6.9,14.711 -20.71,14.711 h -86.63 V 4.91016 h -70.28 V 284.961 h 157.46 c 60.66,0 90.99,-22.152 90.99,-66.477 v -31.05 c 0,-27.606 -11.8,-44.5 -35.42,-50.672 14.54,-4.727 24.16,-17.434 28.88,-38.1409 l 21.25,-93.71094 v 0"
         style="fill:#a7a5a6;fill-opacity:1;fill-rule:nonzero;stroke:none"
         id="path30" /><path
         d="m 2028.68,4.91016 h -70.29 V 284.961 h 70.29 V 4.91016 v 0"
         style="fill:#a7a5a6;fill-opacity:1;fill-rule:nonzero;stroke:none"
         id="path32" /><path
         d="m 1938.56,4.91016 h -85.55 l -94.8,293.12484 c -2.9,8.723 -7.82,13.078 -14.71,13.078 -6.54,0 -11.26,-4.355 -14.17,-13.078 L 1634.52,4.91016 h -85.53 L 1653.05,320.922 c 15.25,46.496 45.4,69.742 90.45,69.742 45.04,0 75.18,-23.246 90.45,-69.742 L 1938.56,4.91016 v 0"
         style="fill:#a7a5a6;fill-opacity:1;fill-rule:nonzero;stroke:none"
         id="path34" /><path
         d="m 1528.92,4.91016 h -96.98 c -33.06,0 -56.66,7.07814 -70.83,21.25004 -14.17,14.1718 -21.25,37.7695 -21.25,70.8281 V 284.961 h 70.29 V 106.789 c 0,-12.707 2.27,-21.3398 6.81,-25.8788 4.54,-4.5391 13.16,-6.8008 25.88,-6.8008 h 86.08 v -69.19924 0"
         style="fill:#d3d2d2;fill-opacity:1;fill-rule:nonzero;stroke:none"
         id="path36" /><path
         d="m 1294.1,94.8086 c 0,-30.1484 -8.28,-53.4883 -24.8,-70.0195 C 1252.78,8.26953 1229.62,0 1199.83,0 h -77.91 c -29.79,0 -53.03,8.35156 -69.74,25.0586 -16.71,16.7109 -25.07,39.9609 -25.07,69.75 V 284.961 h 70.29 V 104.609 c 0,-23.5973 11.81,-35.4098 35.42,-35.4098 h 55.57 c 23.61,0 35.41,11.8125 35.41,35.4098 v 180.352 h 70.3 v -190.1524 0"
         style="fill:#d3d2d2;fill-opacity:1;fill-rule:nonzero;stroke:none"
         id="path38" /><path
         d="m 912.148,109.52 v 70.828 c 0,23.613 -11.621,35.418 -34.871,35.418 H 796.094 V 74.1094 h 81.183 c 23.25,0 34.871,11.789 34.871,35.4106 z m 70.829,-9.8091 c 0,-29.7812 -8.262,-53.039 -24.789,-69.75 C 941.66,13.2695 918.324,4.91016 888.176,4.91016 H 725.809 V 284.961 h 162.367 c 30.148,0 53.484,-8.262 70.012,-24.789 16.527,-16.527 24.789,-39.863 24.789,-70.012 v -90.4491 0"
         style="fill:#d3d2d2;fill-opacity:1;fill-rule:nonzero;stroke:none"
         id="path40" /><path
         d="m 610.848,104.609 v 80.645 c 0,23.605 -11.805,35.414 -35.418,35.414 h -61.571 c -23.613,0 -35.414,-11.809 -35.414,-35.414 v -80.645 c 0,-23.5973 11.801,-35.4098 35.414,-35.4098 h 61.571 c 23.613,0 35.418,11.8125 35.418,35.4098 z m 70.824,-9.8004 c 0,-29.7891 -8.262,-53.0391 -24.789,-69.75 C 640.359,8.35156 617.02,0 586.875,0 h -84.461 c -29.785,0 -53.031,8.35156 -69.734,25.0586 -16.715,16.7109 -25.063,39.9609 -25.063,69.75 V 195.059 c 0,30.152 8.348,53.484 25.063,70.011 16.703,16.532 39.949,24.793 69.734,24.793 h 84.461 c 30.145,0 53.484,-8.261 70.008,-24.793 16.527,-16.527 24.789,-39.859 24.789,-70.011 v -100.2504 0"
         style="fill:#d3d2d2;fill-opacity:1;fill-rule:nonzero;stroke:none"
         id="path42" /><path
         d="M 366.824,4.91016 H 305.891 V 219.398 c 0,11.254 -4.942,16.879 -14.825,16.879 -5.214,0 -9.05,-1.781 -11.527,-5.351 -1.918,-2.192 -3.98,-6.996 -6.172,-14.41 L 252.781,151.059 C 239.883,110.16 216.828,89.7109 183.617,89.7109 c -33.207,0 -56.265,20.4491 -69.164,61.3481 l -20.5858,65.457 c -2.1953,7.414 -4.2539,12.218 -6.1719,14.41 -2.4726,3.57 -6.3164,5.351 -11.5312,5.351 -10.1563,0 -15.2344,-5.625 -15.2344,-16.879 V 4.91016 L 0,4.91016 V 225.574 c 0,22.235 6.58984,39.59 19.7656,52.074 13.1719,12.493 31.4258,18.739 54.7539,18.739 18.6641,0 34.3755,-4.391 47.1405,-13.176 12.758,-8.781 21.473,-20.996 26.141,-36.641 l 25.113,-86.863 c 1.922,-6.867 5.492,-10.301 10.703,-10.301 5.215,0 8.785,3.434 10.707,10.301 l 25.114,86.863 c 4.664,15.645 13.378,27.86 26.14,36.641 12.766,8.785 28.477,13.176 47.141,13.176 23.328,0 41.511,-6.172 54.551,-18.528 13.031,-12.347 19.554,-29.781 19.554,-52.285 V 4.91016 v 0"
         style="fill:#d3d2d2;fill-opacity:1;fill-rule:nonzero;stroke:none"
         id="path44" /><path
         d="m 1167.34,675.805 c 11.45,-15.25 23.03,-30.039 34.69,-44.332 l -0.01,0.011 c -133.6,177.95 -196.32,357.59 -140.06,401.156 56.26,43.57 210.24,-65.406 343.84,-243.355 107.32,-142.914 168.88,-286.902 159.82,-360.633 28.48,72.09 -41.11,247.93 -172.06,422.325 -148.31,197.543 -319.25,318.503 -381.71,270.143 -62.448,-48.36 7.18,-247.776 155.49,-445.315 v 0"
         style="fill:#0994dc;fill-opacity:1;fill-rule:evenodd;stroke:none"
         id="path46" /><path
         d="m 1029.9,565.531 c 9.82,-13.066 19.74,-25.738 29.73,-37.988 l -0.01,0.012 C 945.125,680.047 891.375,833.988 939.594,871.32 c 48.211,37.34 180.166,-56.047 294.656,-208.539 91.96,-122.472 144.72,-245.863 136.95,-309.047 24.4,61.778 -35.23,212.461 -147.45,361.914 -127.09,169.278 -273.57,272.95 -327.098,231.5 -53.519,-41.441 6.149,-212.335 133.248,-381.617 v 0"
         style="fill:#0994dc;fill-opacity:1;fill-rule:evenodd;stroke:none"
         id="path48" /><path
         d="m 989.105,522.566 c 9.293,-12.367 18.685,-24.363 28.145,-35.961 l -0.01,0.008 C 908.852,630.977 857.973,776.715 903.613,812.055 c 45.645,35.347 170.557,-53.063 278.947,-197.422 87.05,-115.942 137,-232.75 129.65,-292.57 23.1,58.484 -33.36,201.132 -139.58,342.613 -120.33,160.254 -258.993,258.398 -309.661,219.16 -50.672,-39.234 5.812,-201.012 126.136,-361.27 v 0"
         style="fill:#bdbcbc;fill-opacity:1;fill-rule:evenodd;stroke:none"
         id="path50" /><path
         d="m 879.441,442.547 c 7.305,-9.727 14.684,-19.149 22.122,-28.266 l -0.008,0.004 c -85.188,113.465 -125.18,228.004 -89.305,255.781 35.875,27.786 134.051,-41.699 219.24,-155.164 68.42,-91.125 107.67,-182.929 101.9,-229.941 18.15,45.961 -26.22,158.082 -109.71,269.277 -94.571,125.957 -203.555,203.086 -243.379,172.25 -39.821,-30.84 4.57,-157.988 99.14,-283.941 v 0"
         style="fill:#bdbcbc;fill-opacity:1;fill-rule:evenodd;stroke:none"
         id="path52" /><path
         d="m 1167.34,675.805 c 11.45,-15.25 23.03,-30.039 34.69,-44.332 l -0.01,0.011 c -133.6,177.95 -196.32,357.59 -140.06,401.156 56.26,43.57 210.24,-65.406 343.84,-243.355 107.32,-142.914 168.88,-286.902 159.82,-360.633 28.48,72.09 -41.11,247.93 -172.06,422.325 -148.31,197.543 -319.25,318.503 -381.71,270.143 -62.448,-48.36 7.18,-247.776 155.49,-445.315 v 0"
         style="fill:#0994dc;fill-opacity:1;fill-rule:evenodd;stroke:none"
         id="path54" /><path
         d="m 1029.9,565.531 c 9.82,-13.066 19.74,-25.738 29.73,-37.988 l -0.01,0.012 C 945.125,680.047 891.375,833.988 939.594,871.32 c 48.211,37.34 180.166,-56.047 294.656,-208.539 91.96,-122.472 144.72,-245.863 136.95,-309.047 24.4,61.778 -35.23,212.461 -147.45,361.914 -127.09,169.278 -273.57,272.95 -327.098,231.5 -53.519,-41.441 6.149,-212.335 133.248,-381.617 v 0"
         style="fill:#0994dc;fill-opacity:1;fill-rule:evenodd;stroke:none"
         id="path56" /><path
         d="m 989.105,522.566 c 9.293,-12.367 18.685,-24.363 28.145,-35.961 l -0.01,0.008 C 908.852,630.977 857.973,776.715 903.613,812.055 c 45.645,35.347 170.557,-53.063 278.947,-197.422 87.05,-115.942 137,-232.75 129.65,-292.57 23.1,58.484 -33.36,201.132 -139.58,342.613 -120.33,160.254 -258.993,258.398 -309.661,219.16 -50.672,-39.234 5.812,-201.012 126.136,-361.27 v 0"
         style="fill:#bdbcbc;fill-opacity:1;fill-rule:evenodd;stroke:none"
         id="path58" /><path
         d="m 879.441,442.547 c 7.305,-9.727 14.684,-19.149 22.122,-28.266 l -0.008,0.004 c -85.188,113.465 -125.18,228.004 -89.305,255.781 35.875,27.786 134.051,-41.699 219.24,-155.164 68.42,-91.125 107.67,-182.929 101.9,-229.941 18.15,45.961 -26.22,158.082 -109.71,269.277 -94.571,125.957 -203.555,203.086 -243.379,172.25 -39.821,-30.84 4.57,-157.988 99.14,-283.941 v 0"
         style="fill:#bdbcbc;fill-opacity:1;fill-rule:evenodd;stroke:none"
         id="path60" /></g></g></svg>
