<?xml version="1.0" encoding="UTF-8" standalone="no"?>
<svg
   xmlns:dc="http://purl.org/dc/elements/1.1/"
   xmlns:cc="http://creativecommons.org/ns#"
   xmlns:rdf="http://www.w3.org/1999/02/22-rdf-syntax-ns#"
   xmlns:svg="http://www.w3.org/2000/svg"
   xmlns="http://www.w3.org/2000/svg"
   xmlns:sodipodi="http://sodipodi.sourceforge.net/DTD/sodipodi-0.dtd"
   xmlns:inkscape="http://www.inkscape.org/namespaces/inkscape"
   version="1.1"
   id="svg2"
   xml:space="preserve"
   width="311.67999"
   height="71.906677"
   viewBox="0 0 311.67999 71.90668"
   sodipodi:docname="logo-only-text.svg"
   inkscape:version="1.0.1 (3bc2e813f5, 2020-09-07)"><metadata
     id="metadata8"><rdf:RDF><cc:Work
         rdf:about=""><dc:format>image/svg+xml</dc:format><dc:type
           rdf:resource="http://purl.org/dc/dcmitype/StillImage" /><dc:title></dc:title></cc:Work></rdf:RDF></metadata><defs
     id="defs6" /><sodipodi:namedview
     pagecolor="#ffffff"
     bordercolor="#666666"
     borderopacity="1"
     objecttolerance="10"
     gridtolerance="10"
     guidetolerance="10"
     inkscape:pageopacity="0"
     inkscape:pageshadow="2"
     inkscape:window-width="1600"
     inkscape:window-height="837"
     id="namedview4"
     inkscape:document-rotation="0"
     showgrid="false"
     inkscape:zoom="2.1913502"
     inkscape:cx="155.84"
     inkscape:cy="75.453339"
     inkscape:window-x="-8"
     inkscape:window-y="-8"
     inkscape:window-maximized="1"
     inkscape:current-layer="g12" /><g
     id="g10"
     inkscape:groupmode="layer"
     inkscape:label="ink_ext_XXXXXX"
     transform="matrix(1.3333333,0,0,-1.3333333,0,150.90667)"><g
       id="g12"
       transform="scale(0.1)"><path
         d="m 2347.8776,689.41967 h -75.18 l -14.72,73.00004 c -3.63,17.8086 -11.08,26.6988 -22.34,26.6988 h -55.02 v 65.934 h 61.01 c 13.81,0 20.71,4.719 20.71,14.168 v 16.344 c 0,9.808 -6.9,14.711 -20.71,14.711 h -86.63 V 689.41967 h -70.28 v 280.05084 h 157.46 c 60.66,0 90.99,-22.152 90.99,-66.477 v -31.05 c 0,-27.606 -11.8,-44.5 -35.42,-50.672 14.54,-4.727 24.16,-17.434 28.88,-38.1409 l 21.25,-93.71094 v 0"
         style="fill:#a7a5a6;fill-opacity:1;fill-rule:nonzero;stroke:none"
         id="path14" /><path
         d="m 2038.9476,689.41967 h -70.29 v 280.05084 h 70.29 v -280.05084 0"
         style="fill:#a7a5a6;fill-opacity:1;fill-rule:nonzero;stroke:none"
         id="path16" /><path
         d="m 1948.8276,689.41967 h -85.55 l -94.8,293.12484 c -2.9,8.723 -7.82,13.078 -14.71,13.078 -6.54,0 -11.26,-4.355 -14.17,-13.078 l -94.81,-293.12484 h -85.53 l 104.06,316.01183 c 15.25,46.496 45.4,69.742 90.45,69.742 45.04,0 75.18,-23.246 90.45,-69.742 l 104.61,-316.01183 v 0"
         style="fill:#a7a5a6;fill-opacity:1;fill-rule:nonzero;stroke:none"
         id="path18" /><path
         d="m 1539.1876,689.41967 h -96.98 c -33.06,0 -56.66,7.07814 -70.83,21.25004 -14.17,14.1718 -21.25,37.7695 -21.25,70.8281 v 187.9727 h 70.29 v -178.172 c 0,-12.707 2.27,-21.3398 6.81,-25.8788 4.54,-4.5391 13.16,-6.8008 25.88,-6.8008 h 86.08 v -69.19924 0"
         style="fill:#d3d2d2;fill-opacity:1;fill-rule:nonzero;stroke:none"
         id="path20" /><path
         d="m 1304.3676,779.31811 c 0,-30.1484 -8.28,-53.4883 -24.8,-70.0195 -16.52,-16.51957 -39.68,-24.7891 -69.47,-24.7891 h -77.91 c -29.79,0 -53.03,8.35156 -69.74,25.0586 -16.71,16.7109 -25.07,39.9609 -25.07,69.75 v 190.1524 h 70.29 v -180.352 c 0,-23.5973 11.81,-35.4098 35.42,-35.4098 h 55.57 c 23.61,0 35.41,11.8125 35.41,35.4098 v 180.352 h 70.3 v -190.1524 0"
         style="fill:#d3d2d2;fill-opacity:1;fill-rule:nonzero;stroke:none"
         id="path22" /><path
         d="m 922.41565,794.02951 v 70.828 c 0,23.613 -11.621,35.418 -34.871,35.418 h -81.183 v -141.6566 h 81.183 c 23.25,0 34.871,11.789 34.871,35.4106 z m 70.829,-9.8091 c 0,-29.7812 -8.262,-53.039 -24.789,-69.75 -16.528,-16.6914 -39.864,-25.05074 -70.012,-25.05074 h -162.367 v 280.05084 h 162.367 c 30.148,0 53.484,-8.262 70.012,-24.789 16.527,-16.527 24.789,-39.863 24.789,-70.012 v -90.4491 0"
         style="fill:#d3d2d2;fill-opacity:1;fill-rule:nonzero;stroke:none"
         id="path24" /><path
         d="m 621.11565,789.11851 v 80.645 c 0,23.605 -11.805,35.414 -35.418,35.414 h -61.571 c -23.613,0 -35.414,-11.809 -35.414,-35.414 v -80.645 c 0,-23.5973 11.801,-35.4098 35.414,-35.4098 h 61.571 c 23.613,0 35.418,11.8125 35.418,35.4098 z m 70.824,-9.8004 c 0,-29.7891 -8.262,-53.0391 -24.789,-69.75 -16.524,-16.70704 -39.863,-25.0586 -70.008,-25.0586 h -84.461 c -29.785,0 -53.031,8.35156 -69.734,25.0586 -16.715,16.7109 -25.063,39.9609 -25.063,69.75 v 100.2504 c 0,30.152 8.348,53.484 25.063,70.011 16.703,16.532 39.949,24.793 69.734,24.793 h 84.461 c 30.145,0 53.484,-8.261 70.008,-24.793 16.527,-16.527 24.789,-39.859 24.789,-70.011 v -100.2504 0"
         style="fill:#d3d2d2;fill-opacity:1;fill-rule:nonzero;stroke:none"
         id="path26" /><path
         d="m 377.09165,689.41967 h -60.933 v 214.48784 c 0,11.254 -4.942,16.879 -14.825,16.879 -5.214,0 -9.05,-1.781 -11.527,-5.351 -1.918,-2.192 -3.98,-6.996 -6.172,-14.41 l -20.586,-65.457 c -12.898,-40.899 -35.953,-61.3481 -69.164,-61.3481 -33.207,0 -56.265,20.4491 -69.164,61.3481 l -20.58581,65.457 c -2.1953,7.414 -4.253897,12.218 -6.171897,14.41 -2.4726,3.57 -6.3164,5.351 -11.5312,5.351 -10.1563,0 -15.2344,-5.625 -15.2344,-16.879 V 689.41967 h -60.9297 v 220.66384 c 0,22.235 6.58984,39.59 19.7656,52.074 13.1719,12.493 31.4258,18.739 54.7539,18.739 18.664097,0 34.375507,-4.391 47.140507,-13.176 12.758,-8.781 21.473,-20.996 26.141,-36.641 l 25.113,-86.863 c 1.922,-6.867 5.492,-10.301 10.703,-10.301 5.215,0 8.785,3.434 10.707,10.301 l 25.114,86.863 c 4.664,15.645 13.378,27.86 26.14,36.641 12.766,8.785 28.477,13.176 47.141,13.176 23.328,0 41.511,-6.172 54.551,-18.528 13.031,-12.347 19.554,-29.781 19.554,-52.285 v -220.66384 0"
         style="fill:#d3d2d2;fill-opacity:1;fill-rule:nonzero;stroke:none"
         id="path28" /><path
         d="m 2347.8776,689.41967 h -75.18 l -14.72,73.00004 c -3.63,17.8086 -11.08,26.6988 -22.34,26.6988 h -55.02 v 65.934 h 61.01 c 13.81,0 20.71,4.719 20.71,14.168 v 16.344 c 0,9.808 -6.9,14.711 -20.71,14.711 h -86.63 V 689.41967 h -70.28 v 280.05084 h 157.46 c 60.66,0 90.99,-22.152 90.99,-66.477 v -31.05 c 0,-27.606 -11.8,-44.5 -35.42,-50.672 14.54,-4.727 24.16,-17.434 28.88,-38.1409 l 21.25,-93.71094 v 0"
         style="fill:#a7a5a6;fill-opacity:1;fill-rule:nonzero;stroke:none"
         id="path30" /><path
         d="m 2038.9476,689.41967 h -70.29 v 280.05084 h 70.29 v -280.05084 0"
         style="fill:#a7a5a6;fill-opacity:1;fill-rule:nonzero;stroke:none"
         id="path32" /><path
         d="m 1948.8276,689.41967 h -85.55 l -94.8,293.12484 c -2.9,8.723 -7.82,13.078 -14.71,13.078 -6.54,0 -11.26,-4.355 -14.17,-13.078 l -94.81,-293.12484 h -85.53 l 104.06,316.01183 c 15.25,46.496 45.4,69.742 90.45,69.742 45.04,0 75.18,-23.246 90.45,-69.742 l 104.61,-316.01183 v 0"
         style="fill:#a7a5a6;fill-opacity:1;fill-rule:nonzero;stroke:none"
         id="path34" /><path
         d="m 1539.1876,689.41967 h -96.98 c -33.06,0 -56.66,7.07814 -70.83,21.25004 -14.17,14.1718 -21.25,37.7695 -21.25,70.8281 v 187.9727 h 70.29 v -178.172 c 0,-12.707 2.27,-21.3398 6.81,-25.8788 4.54,-4.5391 13.16,-6.8008 25.88,-6.8008 h 86.08 v -69.19924 0"
         style="fill:#d3d2d2;fill-opacity:1;fill-rule:nonzero;stroke:none"
         id="path36" /><path
         d="m 1304.3676,779.31811 c 0,-30.1484 -8.28,-53.4883 -24.8,-70.0195 -16.52,-16.51957 -39.68,-24.7891 -69.47,-24.7891 h -77.91 c -29.79,0 -53.03,8.35156 -69.74,25.0586 -16.71,16.7109 -25.07,39.9609 -25.07,69.75 v 190.1524 h 70.29 v -180.352 c 0,-23.5973 11.81,-35.4098 35.42,-35.4098 h 55.57 c 23.61,0 35.41,11.8125 35.41,35.4098 v 180.352 h 70.3 v -190.1524 0"
         style="fill:#d3d2d2;fill-opacity:1;fill-rule:nonzero;stroke:none"
         id="path38" /><path
         d="m 922.41565,794.02951 v 70.828 c 0,23.613 -11.621,35.418 -34.871,35.418 h -81.183 v -141.6566 h 81.183 c 23.25,0 34.871,11.789 34.871,35.4106 z m 70.829,-9.8091 c 0,-29.7812 -8.262,-53.039 -24.789,-69.75 -16.528,-16.6914 -39.864,-25.05074 -70.012,-25.05074 h -162.367 v 280.05084 h 162.367 c 30.148,0 53.484,-8.262 70.012,-24.789 16.527,-16.527 24.789,-39.863 24.789,-70.012 v -90.4491 0"
         style="fill:#d3d2d2;fill-opacity:1;fill-rule:nonzero;stroke:none"
         id="path40" /><path
         d="m 621.11565,789.11851 v 80.645 c 0,23.605 -11.805,35.414 -35.418,35.414 h -61.571 c -23.613,0 -35.414,-11.809 -35.414,-35.414 v -80.645 c 0,-23.5973 11.801,-35.4098 35.414,-35.4098 h 61.571 c 23.613,0 35.418,11.8125 35.418,35.4098 z m 70.824,-9.8004 c 0,-29.7891 -8.262,-53.0391 -24.789,-69.75 -16.524,-16.70704 -39.863,-25.0586 -70.008,-25.0586 h -84.461 c -29.785,0 -53.031,8.35156 -69.734,25.0586 -16.715,16.7109 -25.063,39.9609 -25.063,69.75 v 100.2504 c 0,30.152 8.348,53.484 25.063,70.011 16.703,16.532 39.949,24.793 69.734,24.793 h 84.461 c 30.145,0 53.484,-8.261 70.008,-24.793 16.527,-16.527 24.789,-39.859 24.789,-70.011 v -100.2504 0"
         style="fill:#d3d2d2;fill-opacity:1;fill-rule:nonzero;stroke:none"
         id="path42" /><path
         d="m 377.09165,689.41967 h -60.933 v 214.48784 c 0,11.254 -4.942,16.879 -14.825,16.879 -5.214,0 -9.05,-1.781 -11.527,-5.351 -1.918,-2.192 -3.98,-6.996 -6.172,-14.41 l -20.586,-65.457 c -12.898,-40.899 -35.953,-61.3481 -69.164,-61.3481 -33.207,0 -56.265,20.4491 -69.164,61.3481 l -20.58581,65.457 c -2.1953,7.414 -4.253897,12.218 -6.171897,14.41 -2.4726,3.57 -6.3164,5.351 -11.5312,5.351 -10.1563,0 -15.2344,-5.625 -15.2344,-16.879 V 689.41967 h -60.9297 v 220.66384 c 0,22.235 6.58984,39.59 19.7656,52.074 13.1719,12.493 31.4258,18.739 54.7539,18.739 18.664097,0 34.375507,-4.391 47.140507,-13.176 12.758,-8.781 21.473,-20.996 26.141,-36.641 l 25.113,-86.863 c 1.922,-6.867 5.492,-10.301 10.703,-10.301 5.215,0 8.785,3.434 10.707,10.301 l 25.114,86.863 c 4.664,15.645 13.378,27.86 26.14,36.641 12.766,8.785 28.477,13.176 47.141,13.176 23.328,0 41.511,-6.172 54.551,-18.528 13.031,-12.347 19.554,-29.781 19.554,-52.285 v -220.66384 0"
         style="fill:#d3d2d2;fill-opacity:1;fill-rule:nonzero;stroke:none"
         id="path44" /></g></g></svg>
