<?xml version="1.0" encoding="utf-8"?>
<!-- Generator: Adobe Illustrator 24.2.0, SVG Export Plug-In . SVG Version: 6.00 Build 0)  -->
<svg version="1.1"
	 id="svg2" sodipodi:docname="logo.eps" xmlns:cc="http://creativecommons.org/ns#" xmlns:dc="http://purl.org/dc/elements/1.1/" xmlns:inkscape="http://www.inkscape.org/namespaces/inkscape" xmlns:rdf="http://www.w3.org/1999/02/22-rdf-syntax-ns#" xmlns:sodipodi="http://sodipodi.sourceforge.net/DTD/sodipodi-0.dtd" xmlns:svg="http://www.w3.org/2000/svg"
	 xmlns="http://www.w3.org/2000/svg" xmlns:xlink="http://www.w3.org/1999/xlink" x="0px" y="0px" viewBox="0 0 107.5 112.9"
	 style="enable-background:new 0 0 107.5 112.9;" xml:space="preserve">
<style type="text/css">
	.st0{fill:#D3D2D2;}
	.st1{fill-rule:evenodd;clip-rule:evenodd;fill:#0994DC;}
	.st2{fill-rule:evenodd;clip-rule:evenodd;fill:#BDBCBC;}
</style>
<sodipodi:namedview  bordercolor="#666666" borderopacity="1" gridtolerance="10" guidetolerance="10" id="namedview4" inkscape:pageopacity="0" inkscape:pageshadow="2" inkscape:window-height="480" inkscape:window-width="640" objecttolerance="10" pagecolor="#ffffff">
	</sodipodi:namedview>
<g id="g10" transform="matrix(1.3333333,0,0,-1.3333333,0,150.90667)" inkscape:groupmode="layer" inkscape:label="ink_ext_XXXXXX">
	<g id="g12" transform="scale(0.1)">
		<path id="path22_1_" class="st0" d="M261.4,285h70.3"/>
		<path id="path38_1_" class="st0" d="M261.4,285h70.3"/>
		<path id="path46" class="st1" d="M401.6,675.8c11.4-15.3,23-30,34.7-44.3l0,0c-133.6,178-196.3,357.6-140.1,401.2
			c56.3,43.6,210.2-65.4,343.8-243.4C747.4,646.4,809,502.4,799.9,428.7c28.5,72.1-41.1,247.9-172.1,422.3
			c-148.3,197.5-319.3,318.5-381.7,270.1C183.7,1072.8,253.3,873.4,401.6,675.8L401.6,675.8"/>
		<path id="path48" class="st1" d="M264.2,565.6c9.8-13.1,19.7-25.7,29.7-38l0,0C179.4,680.1,125.7,834,173.9,871.4
			c48.2,37.3,180.2-56,294.7-208.5c92-122.5,144.7-245.9,137-309c24.4,61.8-35.2,212.5-147.5,361.9C331,885,184.5,988.6,131,947.2
			C77.4,905.7,137.1,734.8,264.2,565.6L264.2,565.6"/>
		<path id="path50" class="st2" d="M223.4,522.6c9.3-12.4,18.7-24.4,28.1-36l0,0C143.2,631,92.3,776.7,137.9,812.1
			c45.6,35.3,170.6-53.1,278.9-197.4c87.1-115.9,137-232.8,129.7-292.6c23.1,58.5-33.4,201.1-139.6,342.6
			C286.6,825,147.9,923.1,97.3,883.9C46.6,844.6,103.1,682.9,223.4,522.6L223.4,522.6"/>
		<path id="path52" class="st2" d="M113.7,442.6c7.3-9.7,14.7-19.1,22.1-28.3l0,0c-85.2,113.5-125.2,228-89.3,255.8
			c35.9,27.8,134.1-41.7,219.2-155.2C334.2,423.8,373.5,332,367.7,285c18.2,46-26.2,158.1-109.7,269.3
			c-94.6,126-203.6,203.1-243.4,172.3C-25.2,695.7,19.2,568.5,113.7,442.6L113.7,442.6"/>
		<path id="path54" class="st1" d="M401.6,675.8c11.4-15.3,23-30,34.7-44.3l0,0c-133.6,178-196.3,357.6-140.1,401.2
			c56.3,43.6,210.2-65.4,343.8-243.4C747.4,646.4,809,502.4,799.9,428.7c28.5,72.1-41.1,247.9-172.1,422.3
			c-148.3,197.5-319.3,318.5-381.7,270.1C183.7,1072.8,253.3,873.4,401.6,675.8L401.6,675.8"/>
		<path id="path56" class="st1" d="M264.2,565.6c9.8-13.1,19.7-25.7,29.7-38l0,0C179.4,680.1,125.7,834,173.9,871.4
			c48.2,37.3,180.2-56,294.7-208.5c92-122.5,144.7-245.9,137-309c24.4,61.8-35.2,212.5-147.5,361.9C331,885,184.5,988.6,131,947.2
			C77.4,905.7,137.1,734.8,264.2,565.6L264.2,565.6"/>
		<path id="path58" class="st2" d="M223.4,522.6c9.3-12.4,18.7-24.4,28.1-36l0,0C143.2,631,92.3,776.7,137.9,812.1
			c45.6,35.3,170.6-53.1,278.9-197.4c87.1-115.9,137-232.8,129.7-292.6c23.1,58.5-33.4,201.1-139.6,342.6
			C286.6,825,147.9,923.1,97.3,883.9C46.6,844.6,103.1,682.9,223.4,522.6L223.4,522.6"/>
		<path id="path60" class="st2" d="M113.7,442.6c7.3-9.7,14.7-19.1,22.1-28.3l0,0c-85.2,113.5-125.2,228-89.3,255.8
			c35.9,27.8,134.1-41.7,219.2-155.2C334.2,423.8,373.5,332,367.7,285c18.2,46-26.2,158.1-109.7,269.3
			c-94.6,126-203.6,203.1-243.4,172.3C-25.2,695.7,19.2,568.5,113.7,442.6L113.7,442.6"/>
	</g>
</g>
</svg>
