<?xml version="1.0" encoding="utf-8"?>
<!-- Generator: Adobe Illustrator 24.2.0, SVG Export Plug-In . SVG Version: 6.00 Build 0)  -->
<svg version="1.1" id="Layer_2_1_" xmlns="http://www.w3.org/2000/svg" xmlns:xlink="http://www.w3.org/1999/xlink" x="0px" y="0px"
	 viewBox="0 0 759.3 615.4" style="enable-background:new 0 0 759.3 615.4;" xml:space="preserve">
<style type="text/css">
	.st0{fill:#BDBCBC;}
</style>
<g id="Layer_1_2_">
	<path class="st0" d="M759.3,268.1c-0.3,4-0.9,9.2-1.8,15.3c0,0,0,0.1,0,0.1c-0.4,2.7-0.9,5.6-1.5,8.6c-5.1,26.1-16,55.2-40.3,88
		c-3.1,4.3-6.5,8.6-10.1,13c-23.5,28.5-50.1,51.4-109,88c-46.9,29.1-87.1,50.1-137.9,75c-33,16.2-75.2,36.3-124.9,58.7
		c-6.8,3.1-12.3-7.1-7.3-13.4c15.4-19.7,32.4-46.8,45.3-82.2c0,0,0-0.1,0-0.1c11.8-32.2,16.8-61.7,19.1-84l368-166.8L759.3,268.1z"
		/>
</g>
<g id="Layer_2_2_">
	<path class="st0" d="M390.9,435.1c-2.3,22.3-7.3,51.8-19.1,84h12.6c139.9-1.2,261.7-54.2,326-132.3c1.8-2.2,3.6-4.4,5.3-6.7
		c8.7-11.3,16.1-23,22.3-35.1c7.4-14.6,13-29.8,16.5-45.4c1.2-5.3,2.2-10.7,2.9-16.1c0,0,0-0.1,0-0.1c0.4-3.1,0.7-6.2,1-9.3
		c0.2-1.9,0.3-3.8,0.4-5.8L390.9,435.1z"/>
	<path class="st0" d="M384.5,0h-9.8C167.3,1.8,0,117.3,0,259.6c0,141.3,164.9,256.1,370.2,259.5h1.6c11.8-32.2,16.8-61.7,19.1-84
		l368-166.8c0-0.1,0-0.2,0-0.3c0.1-2.9,0.2-5.7,0.2-8.6C759.3,117.3,592,1.8,384.5,0z M212.4,310.1c-27.8,0-50.3-22.5-50.3-50.3
		s22.5-50.3,50.3-50.3c5.6,0,10.9,0.9,15.9,2.6c20,6.6,34.4,25.5,34.4,47.7c-0.1,22.2-14.5,41-34.4,47.7
		C223.3,309.2,217.9,310.1,212.4,310.1z M381.1,308.7H379c-27.3-0.6-49.2-22.9-49.2-50.3c0-27.4,21.9-49.7,49.2-50.3h2.1
		c27.3,0.5,49.3,22.8,49.3,50.3S408.4,308.2,381.1,308.7z M547.2,310.1c-5.6,0-11-0.9-16-2.6c-19.9-6.7-34.3-25.5-34.3-47.7
		s14.3-41,34.3-47.7c5-1.7,10.4-2.6,16-2.6c27.8,0,50.3,22.5,50.3,50.3S574.9,310.1,547.2,310.1z"/>
</g>
</svg>
