<?xml version="1.0" encoding="utf-8"?>
<!-- Generator: Adobe Illustrator 24.2.0, SVG Export Plug-In . SVG Version: 6.00 Build 0)  -->
<svg version="1.1" id="Layer_1" xmlns="http://www.w3.org/2000/svg" xmlns:xlink="http://www.w3.org/1999/xlink" x="0px" y="0px"
	 viewBox="0 0 435.2 282.6" style="enable-background:new 0 0 435.2 282.6;" xml:space="preserve">
<style type="text/css">
	.st0{fill:#BDBCBC;}
	.st1{fill:#0994DC;}
</style>
<g>
	<path class="st0" d="M96.9,280.8c-38.9,0-58.3-11.2-58.3-33.6v-76.8c0-11.8-11.9-17.7-35.6-17.7v-20.7c23.8,0,35.6-5.8,35.6-17.4
		V37.1c0-22.4,19.4-33.6,58.3-33.6h22.2v19.2c-23.8,0-35.6,2.8-35.6,8.4v83.4c0,12-10.8,21.4-32.3,28.2c21.5,6.8,32.3,16,32.3,27.6
		v82.8c0,5.6,11.9,8.4,35.6,8.4v19.2H96.9z"/>
</g>
<g>
	<path class="st0" d="M314,280.8v-19.2c23.8,0,35.6-2.8,35.6-8.4v-82.8c0-11.6,10.8-20.8,32.3-27.6c-21.5-6.8-32.3-16.2-32.3-28.2
		V31.1c0-5.6-11.9-8.4-35.6-8.4V3.5h22.2c38.8,0,58.3,11.2,58.3,33.6v77.4c0,11.6,11.9,17.4,35.6,17.4v20.7
		c-23.8,0-35.6,5.9-35.6,17.7v76.8c0,22.4-19.4,33.6-58.3,33.6H314z"/>
</g>
<g>
	<path class="st1" d="M186.4,147.8V104h60.2v43.8H186.4z M186.9,273.9l19.7-32.4h-20.2V198h60.7v39l-38.5,43.8L186.9,273.9z"/>
</g>
</svg>
