<?xml version="1.0" encoding="utf-8"?>
<!-- Generator: Adobe Illustrator 24.2.0, SVG Export Plug-In . SVG Version: 6.00 Build 0)  -->
<svg version="1.1" xmlns="http://www.w3.org/2000/svg" xmlns:xlink="http://www.w3.org/1999/xlink" x="0px" y="0px"
	 viewBox="0 0 480 480" style="enable-background:new 0 0 480 480;" xml:space="preserve">
<style type="text/css">
	.st0{fill:#A7A5A6;}
</style>
<g id="Layer_3">
	<g>
		<g>
			<g>
				<path class="st0" d="M358,105.3c3.2-30.9,19.8-42.2,36.6-34.9c3.7,1.6,10.8,5.3,14.8,9.2c-3.2-7.3-7.1-14.1-11.6-20.1
					C378,33.1,353.4,32.1,343,57.2c-10.4,25.1,2.2,72.9,22,99.3C359.2,138.4,356.3,122.2,358,105.3z"/>
			</g>
		</g>
		<g>
			<g>
				<path class="st0" d="M418.7,228.2c24.1-19.6,43.8-15.9,50.6,1.2c1.5,3.8,3.9,11.4,4,16.9c2.9-7.4,5-15,6-22.5
					c4.6-32.6-12-50.7-37.2-40.3c-25.1,10.4-50,53.1-54.6,85.7C396.2,252.5,405.5,239,418.7,228.2z"/>
			</g>
		</g>
		<g>
			<g>
				<path class="st0" d="M374.7,358c30.9,3.2,42.2,19.8,34.9,36.6c-1.6,3.7-5.3,10.8-9.2,14.8c7.3-3.2,14.1-7.1,20.1-11.6
					c26.3-19.8,27.3-44.3,2.2-54.8c-25.1-10.4-72.9,2.2-99.3,22C341.6,359.2,357.8,356.3,374.7,358z"/>
			</g>
		</g>
		<g>
			<g>
				<path class="st0" d="M251.8,418.7c19.6,24.1,15.9,43.8-1.2,50.6c-3.8,1.5-11.4,3.9-16.9,4c7.4,2.9,15,5,22.5,6
					c32.6,4.6,50.7-12,40.3-37.2c-10.4-25.1-53.1-50-85.7-54.6C227.5,396.2,241,405.5,251.8,418.7z"/>
			</g>
		</g>
		<g>
			<g>
				<path class="st0" d="M122,374.7c-3.2,30.9-19.8,42.2-36.6,34.9c-3.7-1.6-10.8-5.3-14.8-9.2c3.2,7.3,7.1,14.1,11.6,20.1
					c19.8,26.3,44.3,27.3,54.8,2.2c10.4-25.1-2.2-72.9-22-99.3C120.8,341.6,123.7,357.8,122,374.7z"/>
			</g>
		</g>
		<g>
			<g>
				<path class="st0" d="M61.3,251.8c-24.1,19.6-43.8,15.9-50.6-1.2c-1.5-3.8-3.9-11.4-4-16.9c-2.9,7.4-5,15-6,22.5
					c-4.6,32.6,12,50.7,37.2,40.3c25.1-10.4,50-53.1,54.6-85.7C83.8,227.5,74.5,241,61.3,251.8z"/>
			</g>
		</g>
		<g>
			<g>
				<path class="st0" d="M105.3,122c-30.9-3.2-42.2-19.8-34.9-36.6c1.6-3.7,5.3-10.8,9.2-14.8c-7.3,3.2-14.1,7.1-20.1,11.6
					C33.1,102,32.1,126.6,57.2,137c25.1,10.4,72.9-2.2,99.3-22C138.4,120.8,122.2,123.7,105.3,122z"/>
			</g>
		</g>
		<g>
			<g>
				<path class="st0" d="M228.2,61.3c-19.6-24.1-15.9-43.8,1.2-50.6c3.8-1.5,11.4-3.9,16.9-4c-7.4-2.9-15-5-22.5-6
					c-32.6-4.6-50.7,12-40.3,37.2c10.4,25.1,53.1,50,85.7,54.6C252.5,83.8,239,74.5,228.2,61.3z"/>
			</g>
		</g>
	</g>
</g>
<g id="Layer_1">
	<g>
		<circle class="st0" cx="239.8" cy="240.5" r="136.5"/>
	</g>
</g>
</svg>
