<?xml version="1.0" encoding="utf-8"?>
<!-- Generator: Adobe Illustrator 24.2.0, SVG Export Plug-In . SVG Version: 6.00 Build 0)  -->
<svg version="1.1" xmlns="http://www.w3.org/2000/svg" xmlns:xlink="http://www.w3.org/1999/xlink" x="0px" y="0px"
	 viewBox="0 0 815.9 684.9" style="enable-background:new 0 0 815.9 684.9;" xml:space="preserve">
<style type="text/css">
	.st0{fill:#BDBCBC;}
	.st1{fill:#0994DC;}
</style>
<g id="Layer_2">
	<path class="st0" d="M577.8,11.9l225.7,225.7c10.2,10.2,10.2,26.8,0,37L729.1,349c-10.2,10.2-26.8,10.2-37,0L466.4,123.3
		c-10.2-10.2-10.2-26.8,0-37l74.4-74.4C551,1.7,567.6,1.7,577.8,11.9z"/>
	<path class="st0" d="M482.9,598.3l-13.4,13.4L407,549.1c-3.6-3.6-3.3-9.8,0.9-13.4c3.8-3.3,9.4-3.1,12.7,0.3L482.9,598.3z"/>
	<path class="st1" d="M412.9,555l56.6,56.6l-55.9,55.9l-1.7,1.7c-0.3,0.3-0.6,0.6-1,0.9l-0.1,0.1c-10.7,9.6-27.9,8.7-38.9-2.2
		l-15.5-15.5c-11.4-11.4-11.9-29.2-1.2-39.9l1.7-1.7l26.3-26.3L412.9,555z"/>
	<path class="st0" d="M682.3,398.9l-5.9,5.9l-56.6,56.6l-13.4,13.4l-55.1,55.1L538,543.2l-55.1,55.1l-57.4-57.4c0.9-3,0.3-6.3-2-8.9
		c-3.6-4.1-9.8-4.5-13.4-0.9l-33.8,33.8c0,0,0,0,0,0l-32.7,32.7l-1.7,1.7c-10.7,10.7-28.6,10.1-39.9-1.2L288,584.2
		c-11.4-11.4-11.9-29.2-1.2-39.9l1.7-1.7l66.3-66.3c3.3-3.3,3.6-8.9,0.3-12.7c-3.6-4.1-9.8-4.5-13.4-0.9l-26.4,26.4l-40.1,40.1
		l-1.7,1.7c-10.7,10.7-28.5,10.1-39.9-1.2l-13.9-13.9c-11.4-11.4-11.9-29.2-1.2-39.9l1.7-1.7l39.3-39.3c0,0,0,0,0,0l27-27
		c3.3-3.3,3.6-8.9,0.3-12.7c-3.6-4.1-9.8-4.5-13.4-0.9L205,462.5c-1.6,1.6-3.3,2.9-5.1,4c0,0-0.1,0.1-0.1,0.1
		c-9.7,5.7-22.6,4.6-32.1-3c0,0,0,0,0,0c-0.9-0.7-1.7-1.5-2.6-2.3l-14.8-14.8c-0.8-0.8-1.6-1.6-2.2-2.5l0,0
		c-9.1-11.3-8.9-27.5,1-37.4l1.7-1.7l38.2-38.2c0,0,0,0,0.1-0.1L413.6,142l5.9-5.9c10.6-10.6,28.6-10.1,39.9,1.2L681.1,359
		C692.4,370.3,693,388.3,682.3,398.9z"/>
</g>
<g id="Layer_1">
	<path class="st1" d="M12.8,233.2L217.2,28.8c10.2-10.2,26.8-10.2,37,0l84.2,84.2c10.2,10.2,10.2,26.8,0,37L134,354.4
		c-10.2,10.2-26.8,10.2-37,0l-84.2-84.2C2.6,260,2.6,243.4,12.8,233.2z"/>
	<path class="st1" d="M680.8,450.4l-15.5,15.5c-11.4,11.4-29.2,11.9-39.9,1.2l-5.7-5.7l-62.3-62.3c-3.3-3.3-8.9-3.6-12.7-0.3
		c-4.1,3.6-4.5,9.8-0.9,13.4l68.2,68.2c10.7,10.7,10.1,28.5-1.2,39.9l-13.9,13.9c-11.4,11.4-29.2,11.9-39.9,1.2l-5.7-5.7L489,467.5
		c-3.3-3.3-8.9-3.6-12.7-0.3c-4.2,3.6-4.5,9.8-0.9,13.4l68.2,68.2c10.7,10.7,10.1,28.6-1.2,39.9l-13.9,13.9
		c-11.4,11.4-29.2,11.9-39.9,1.2l-5.7-5.7L420.6,536c-3.3-3.3-8.9-3.6-12.7-0.3c-4.2,3.6-4.5,9.8-0.9,13.4l68.2,68.2
		c10.7,10.7,10.1,28.6-1.2,39.9L459.2,672c-11.3,11.3-29.3,11.9-39.9,1.2l-5.7-5.7L206.5,460.5l-55.7-55.7l-0.1-0.1l-1.9-1.9
		c-10.6-10.6-10.1-28.6,1.2-39.9l221.6-221.6C383,130,401,129.4,411.6,140l270.5,270.5C692.7,421.1,692.1,439.1,680.8,450.4z"/>
</g>
<g id="Layer_3">
	<path class="st0" d="M167.1,463l-18.8-18.8c-10.2-10.2-10.2-26.8,0-37l36.6-36.6c10.2-10.2,26.8-10.2,37,0l18.8,18.8
		c10.2,10.2,10.2,26.8,0,37L204.1,463C193.9,473.1,177.3,473.1,167.1,463z"/>
	<path class="st0" d="M235.9,532.4l-18.8-18.8c-10.2-10.2-10.2-26.8,0-37l56.5-56.5c10.2-10.2,26.8-10.2,37,0l18.8,18.8
		c10.2,10.2,10.2,26.8,0,37l-56.5,56.5C262.7,542.6,246,542.6,235.9,532.4z"/>
	<path class="st0" d="M304.1,600.6l-18.8-18.8c-10.2-10.2-10.2-26.8,0-37l37.3-37.3c10.2-10.2,26.8-10.2,37,0l18.8,18.8
		c10.2,10.2,10.2,26.8,0,37l-37.3,37.3C330.9,610.7,314.2,610.7,304.1,600.6z"/>
	<path class="st0" d="M373.8,670.3L354,650.5c-10.2-10.2-10.2-26.8,0-37l19.6-19.6c10.2-10.2,26.8-10.2,37,0l19.8,19.8
		c10.2,10.2,10.2,26.8,0,37l-19.6,19.6C400.6,680.5,384,680.5,373.8,670.3z"/>
	<path class="st0" d="M333.6,332.1l-21.8-21.8c-10.2-10.2-10.2-26.8,0-37l119.9-119.9c10.2-10.2,26.8-10.2,37,0l21.8,21.8
		c10.2,10.2,10.2,26.8,0,37L370.6,332.1C360.4,342.2,343.8,342.2,333.6,332.1z"/>
</g>
</svg>
