<?xml version="1.0" encoding="utf-8"?>
<!-- Generator: Adobe Illustrator 24.2.0, SVG Export Plug-In . SVG Version: 6.00 Build 0)  -->
<svg version="1.1" xmlns="http://www.w3.org/2000/svg" xmlns:xlink="http://www.w3.org/1999/xlink" x="0px" y="0px"
	 viewBox="0 0 1080 1080" style="enable-background:new 0 0 1080 1080;" xml:space="preserve">
<style type="text/css">
	.st0{fill:#BDBCBC;}
	.st1{display:none;}
	.st2{display:inline;}
</style>
<g id="Layer_1">
	<g>
		<path class="st0" d="M540,120c56.8,0,111.7,11.1,163.4,33c50,21.1,94.9,51.4,133.5,90.1c38.6,38.6,68.9,83.5,90.1,133.5
			c21.9,51.7,33,106.7,33,163.4s-11.1,111.7-33,163.4c-21.1,50-51.4,94.9-90.1,133.5c-38.6,38.6-83.5,68.9-133.5,90.1
			c-51.7,21.9-106.7,33-163.4,33s-111.7-11.1-163.4-33c-50-21.1-94.9-51.4-133.5-90.1c-38.6-38.6-68.9-83.5-90.1-133.5
			c-21.9-51.7-33-106.7-33-163.4s11.1-111.7,33-163.4c21.1-50,51.4-94.9,90.1-133.5c38.6-38.6,83.5-68.9,133.5-90.1
			C428.3,131.1,483.2,120,540,120 M540,0C241.8,0,0,241.8,0,540s241.8,540,540,540s540-241.8,540-540S838.2,0,540,0L540,0z"/>
	</g>
	<image style="overflow:visible;" width="1920" height="1080" xlink:href="E17BC227.jpg"  transform="matrix(1 0 0 1 -7232 -7652)">
	</image>
</g>
<g id="Layer_3">
	<g>
		<path class="st0" d="M519.7,900.3v-419h-225v-97h338v516H519.7z M567.7,312.3c-22.5,0-42.9-7.6-57.6-21.5
			c-15.1-14.3-23.4-34.7-23.4-57.5c0-45.8,34.1-79,81-79s81,33.2,81,79c0,22.8-8.3,43.2-23.4,57.5
			C610.6,304.7,590.2,312.3,567.7,312.3z"/>
		<path class="st0" d="M534.7,466.3h-225v-67h308v486h-83V466.3z M501.7,233.3c0-38,28-64,66-64s66,26,66,64c0,39-28,64-66,64
			S501.7,272.3,501.7,233.3z"/>
	</g>
</g>
<g id="Layer_2" class="st1">
	<g class="st2">
		<path class="st0" d="M365.4,896.7V749.8h131.1v146.9H365.4z M365.4,714.4v-69.7c0-25.1,4-48.2,12-68.9c8.2-21.2,21.7-39.7,40.1-55
			c18-15,41.1-26.8,68.8-35c27.1-8.1,60.3-12.2,98.6-12.2h81.8c24.3,0,42.4-4.2,53.7-12.6c10.2-7.5,15.2-19,15.2-34.9v-40
			c0-15.9-5-27.3-15.2-34.9c-11.3-8.3-29.3-12.6-53.7-12.6H289.1V215.9h377.6c38.3,0,71.4,4.1,98.6,12.2
			c27.7,8.2,50.7,20.1,68.4,35.1c18,15.3,31.3,33.8,39.5,55c8,20.6,12,43.8,12,68.9v38.1c0,25.1-4,48.2-12,68.9
			c-8.2,21.2-21.5,39.6-39.5,55c-17.8,15.1-40.8,26.9-68.4,35.1c-27.1,8.1-60.2,12.2-98.6,12.2H565.3c-24.3,0-42.4,4.2-53.7,12.6
			c-10.2,7.5-15.2,19-15.2,34.9v70.7H365.4z"/>
		<path class="st0" d="M872.2,425.2c0,23.6-3.7,45-11.2,64.2c-7.4,19.2-19.4,35.8-35.8,49.8c-16.4,13.9-37.7,24.8-63.7,32.6
			c-26,7.8-57.7,11.6-94.9,11.6H565.3c-54.6,0-81.8,20.2-81.8,60.4v57.7H378.4v-56.7c0-23.6,3.7-44.9,11.2-64.2
			c7.4-19.2,19.5-35.8,36.3-49.8c16.7-13.9,38.1-24.8,64.2-32.5c26-7.7,57.7-11.6,94.9-11.6h81.8c54.6,0,81.8-20.1,81.8-60.5v-40
			c0-40.3-27.3-60.5-81.8-60.5H302.1v-96.7h364.6c37.2,0,68.8,3.9,94.9,11.6c26,7.8,47.3,18.6,63.7,32.6
			c16.4,13.9,28.4,30.5,35.8,49.8c7.4,19.2,11.2,40.6,11.2,64.2V425.2z M378.4,883.7V762.8h105.1v120.9H378.4z"/>
	</g>
</g>
</svg>
