<?xml version="1.0" encoding="utf-8"?>
<!-- Generator: Adobe Illustrator 24.2.0, SVG Export Plug-In . SVG Version: 6.00 Build 0)  -->
<svg version="1.1" xmlns="http://www.w3.org/2000/svg" xmlns:xlink="http://www.w3.org/1999/xlink" x="0px" y="0px"
	 viewBox="0 0 1080 1080" style="enable-background:new 0 0 1080 1080;" xml:space="preserve">
<style type="text/css">
	.st0{fill:#0994DC;}
</style>
<g id="Layer_1">
	<g>
		<path class="st0" d="M540,120c56.8,0,111.7,11.1,163.4,33c50,21.1,94.9,51.4,133.5,90.1c38.6,38.6,68.9,83.5,90.1,133.5
			c21.9,51.7,33,106.7,33,163.4s-11.1,111.7-33,163.4c-21.1,50-51.4,94.9-90.1,133.5c-38.6,38.6-83.5,68.9-133.5,90.1
			c-51.7,21.9-106.7,33-163.4,33s-111.7-11.1-163.4-33c-50-21.1-94.9-51.4-133.5-90.1c-38.6-38.6-68.9-83.5-90.1-133.5
			c-21.9-51.7-33-106.7-33-163.4s11.1-111.7,33-163.4c21.1-50,51.4-94.9,90.1-133.5c38.6-38.6,83.5-68.9,133.5-90.1
			C428.3,131.1,483.2,120,540,120 M540,0C241.8,0,0,241.8,0,540s241.8,540,540,540s540-241.8,540-540S838.2,0,540,0L540,0z"/>
	</g>
	<image style="overflow:visible;" width="1920" height="1080" xlink:href="566FF102.jpg"  transform="matrix(1 0 0 1 -7232 -7652)">
	</image>
</g>
<g id="Layer_3">
	<g>
		<path class="st0" d="M519.7,900.3v-419h-225v-97h338v516H519.7z M567.7,312.3c-22.5,0-42.9-7.6-57.6-21.5
			c-15.1-14.3-23.4-34.7-23.4-57.5c0-45.8,34.1-79,81-79s81,33.2,81,79c0,22.8-8.3,43.2-23.4,57.5
			C610.6,304.7,590.2,312.3,567.7,312.3z"/>
		<path class="st0" d="M534.7,466.3h-225v-67h308v486h-83V466.3z M501.7,233.3c0-38,28-64,66-64s66,26,66,64c0,39-28,64-66,64
			S501.7,272.3,501.7,233.3z"/>
	</g>
</g>
</svg>
